<?xml version="1.0" encoding="UTF-8" standalone="no"?>
<svg
   xmlns:dc="http://purl.org/dc/elements/1.1/"
   xmlns:cc="http://creativecommons.org/ns#"
   xmlns:rdf="http://www.w3.org/1999/02/22-rdf-syntax-ns#"
   xmlns:svg="http://www.w3.org/2000/svg"
   xmlns="http://www.w3.org/2000/svg"
   xmlns:sodipodi="http://sodipodi.sourceforge.net/DTD/sodipodi-0.dtd"
   xmlns:inkscape="http://www.inkscape.org/namespaces/inkscape"
   id="svg36"
   version="1.1"
   viewBox="0 0 210 297"
   height="297mm"
   width="210mm"
   sodipodi:docname="fmoyasu.svg"
   inkscape:version="1.0 (4035a4f, 2020-05-01)">
  <defs
     id="defs30" />
  <sodipodi:namedview
     inkscape:window-maximized="0"
     inkscape:window-y="25"
     inkscape:window-x="0"
     inkscape:window-height="819"
     inkscape:window-width="1440"
     showgrid="false"
     inkscape:document-rotation="0"
     inkscape:current-layer="layer1"
     inkscape:document-units="mm"
     inkscape:cy="560"
     inkscape:cx="-210"
     inkscape:zoom="0.35"
     inkscape:pageshadow="2"
     inkscape:pageopacity="0.0"
     borderopacity="1.0"
     bordercolor="#666666"
     pagecolor="#ffffff"
     id="base" />
  <metadata
     id="metadata33">
    <rdf:RDF>
      <cc:Work
         rdf:about="">
        <dc:format>image/svg+xml</dc:format>
        <dc:type
           rdf:resource="http://purl.org/dc/dcmitype/StillImage" />
        <dc:title></dc:title>
      </cc:Work>
    </rdf:RDF>
  </metadata>
  <g
     id="layer1"
     inkscape:groupmode="layer"
     inkscape:label="レイヤー 1">
    <g
       style="font-style:normal;font-weight:normal;font-size:10.5833px;line-height:1.25;font-family:sans-serif;fill:#000000;fill-opacity:1;stroke:none;stroke-width:0.264583"
       id="text18"
       aria-label="燃やすごみ">
      <path
         id="path9"
         style="stroke-width:0.264583"
         d="m 89.552723,149.68078 -0.552936,0.47543 q -1.245398,-1.15239 -1.503779,-3.51399 -0.361734,2.43912 -1.679479,3.53466 l -0.733803,-0.53744 q 1.379757,-0.96634 1.694982,-2.99722 h -0.583942 q -0.480589,1.5968 -2.366773,3.34345 l -0.594277,-0.5581 q 0.930173,-0.81648 1.13171,-1.1007 -0.258381,-0.32556 -0.82682,-0.50126 l 0.454751,-0.57878 q 0.506427,0.1757 0.764809,0.56844 0.12919,-0.18603 0.346231,-0.56844 -0.155029,-0.33073 -0.790647,-0.58394 l 0.423745,-0.59428 q 0.475422,0.1912 0.676959,0.49093 0.149862,-0.28422 0.325561,-1.20923 h -0.847491 q -0.454751,1.17305 -1.374589,2.23242 l -0.73897,-0.3359 q 1.669143,-1.94303 1.767328,-3.87572 l 0.707965,0.23254 q -0.04651,0.37724 -0.191202,0.97669 h 1.483109 q -0.0155,0.63561 -0.160197,1.28674 h 0.496092 q 0.06718,-0.68213 0.06718,-2.42362 h 0.790646 q -0.0155,0.39274 -0.031,0.59428 l 0.656288,-0.24288 q 0.661457,0.82682 0.775144,1.73632 l -0.723467,0.21187 q -0.06201,-0.82682 -0.718301,-1.60713 -0.0155,1.33842 -0.06201,1.73116 h 1.669143 v 0.77514 h -1.074866 q 0.232543,1.85518 1.322912,3.03856 z m -4.966089,0.76998 q -0.186034,1.37976 -1.229895,2.46496 l -0.640786,-0.42375 q 0.671792,-0.62528 1.02319,-1.58646 l -0.516762,0.36174 q -0.341064,-0.70797 -0.868162,-1.15239 -0.428913,1.71049 -1.322912,2.84737 l -0.676959,-0.52193 q 1.405594,-1.89652 1.431432,-4.1341 l 0.0052,-4.86274 h 0.80615 v 2.76468 q 0.222208,-0.1602 0.775144,-1.19372 l 0.60978,0.35656 q -0.573607,1.18339 -1.374589,1.68465 -0.0155,1.90685 -0.103352,2.28409 0.857826,0.53227 1.286739,1.36425 0.08268,-0.1912 0.12919,-0.51676 z m -2.971385,-4.75938 q 0.031,1.40559 -0.635618,2.45462 l -0.775144,-0.24288 q 0.666623,-0.98702 0.666623,-2.38228 z m 8.263035,6.86777 -0.7183,0.20154 q -0.113688,-1.16788 -1.322913,-2.39261 l 0.69763,-0.26355 q 1.183386,1.15238 1.343583,2.45462 z m -2.170403,-0.0982 -0.816485,0.0775 q 0.02584,-0.16536 0.02584,-0.33589 0,-0.86817 -0.645954,-1.88619 l 0.728636,-0.12919 q 0.785479,0.99735 0.707965,2.27376 z m -1.658809,0.10852 -0.775144,0.093 q 0.0155,-0.13952 0.0155,-0.27905 0,-0.95601 -0.620115,-1.95336 l 0.733803,-0.14986 q 0.692462,1.08003 0.645953,2.28926 z" />
      <path
         id="path11"
         style="stroke-width:0.264583"
         d="m 96.420499,145.32964 q 0.749306,-0.22221 1.281572,-0.22221 0.888832,0 1.441768,0.57878 0.558103,0.57877 0.558103,1.4521 0,1.00769 -0.82682,1.66914 -0.821653,0.65629 -2.289259,0.80615 l -0.07235,-1.02319 q 0.873329,0 1.54512,-0.42374 0.676959,-0.42891 0.676959,-1.09037 0,-0.42891 -0.299722,-0.74931 -0.294555,-0.32039 -0.733803,-0.32039 -0.418578,0 -0.816485,0.13953 0.263549,0.48059 0.475422,0.93017 l -0.868162,0.51676 q -0.232543,-0.68212 -0.506427,-1.13171 -0.738971,0.27905 -1.674311,0.75448 1.291906,2.55797 2.030877,4.87824 l -0.992184,0.37723 q -0.41341,-1.819 -1.875849,-4.82139 -0.713132,0.40824 -1.52445,0.98185 l -0.589109,-0.91984 q 0.248046,-0.16537 1.669143,-0.91984 -0.7183,-1.42626 -1.312577,-2.16007 l 0.945676,-0.43408 q 0.769976,1.27641 1.214392,2.18074 0.981849,-0.45992 1.663976,-0.70796 -0.320393,-0.63045 -0.976682,-1.34876 l 0.919838,-0.50642 z" />
      <path
         id="path13"
         style="stroke-width:0.264583"
         d="m 110.27491,146.27015 h -2.38228 v 1.76733 q 0.22221,0.69763 0.22221,1.36425 0,1.14205 -0.59945,2.03605 -0.59944,0.88883 -1.74149,1.38492 l -0.59427,-0.97151 q 0.83198,-0.22738 1.33324,-0.67179 0.50126,-0.44959 0.57361,-1.00252 -0.45475,0.39274 -1.1007,0.39274 -0.72347,0 -1.28157,-0.5271 -0.55811,-0.53227 -0.55811,-1.36942 0,-0.85783 0.52193,-1.41593 0.52193,-0.56327 1.34875,-0.56327 0.53227,0 0.9095,0.26354 v -0.68729 h -4.82656 v -0.95084 h 4.82656 v -1.33325 h 0.96635 v 1.33325 h 2.38228 z m -4.33047,3.31245 q 0.41341,0 0.68212,-0.30489 0.26872,-0.31006 0.26872,-0.7183 0,-0.35657 -0.26355,-0.60461 -0.26355,-0.25322 -0.64595,-0.25322 -0.37207,0 -0.61495,0.27905 -0.24288,0.27389 -0.24288,0.6718 0,0.44958 0.22221,0.69246 0.22737,0.23771 0.59428,0.23771 z" />
      <path
         id="path15"
         style="stroke-width:0.264583"
         d="m 120.67734,145.05576 -0.7338,0.30489 q -0.19121,-0.8785 -0.50643,-1.41593 l 0.77514,-0.32039 q 0.28939,0.57877 0.46509,1.43143 z m -1.17822,0.42374 -0.72863,0.30489 q -0.19637,-0.87849 -0.50643,-1.41593 l 0.76997,-0.32039 q 0.29456,0.57877 0.46509,1.43143 z m -1.28674,-0.53226 -0.0879,1.01802 q -1.71565,-0.39274 -3.63801,-0.39274 l -1.03869,0.0207 0.0724,-0.97151 0.63561,-0.0103 q 2.05672,0 4.05659,0.3359 z m 1.9637,6.93495 q -2.30476,0.18087 -3.81888,0.18087 -1.88101,0 -2.76468,-0.35657 -0.88366,-0.36173 -0.88366,-1.26606 0,-0.73898 1.00252,-2.11356 l 0.91984,0.51676 q -0.99219,0.86816 -0.99219,1.58646 0,0.3669 0.62012,0.52193 0.62528,0.15503 2.09805,0.15503 1.20923,0 3.55533,-0.29456 z" />
      <path
         id="path17"
         style="stroke-width:0.264583"
         d="m 131.46218,150.53861 -0.60462,0.8785 q -0.76997,-0.6718 -1.38492,-1.12138 -0.57361,1.25057 -1.44177,2.22208 l -0.81648,-0.58394 q 0.9095,-0.87333 1.46244,-2.12906 -0.97669,-0.64079 -1.70532,-0.98185 -0.66662,1.78283 -1.18339,2.32543 -0.51159,0.5426 -1.09037,0.5426 -0.63561,0 -1.02835,-0.5426 -0.38758,-0.5426 -0.38758,-1.25573 0,-1.04386 0.66663,-1.72082 0.66662,-0.68213 1.71048,-0.68213 0.41858,0 0.72347,0.10335 0.42891,-1.38492 0.64595,-2.5063 -1.30741,0.093 -2.50113,0.093 l -0.14469,-1.02319 q 0.33073,0.0207 1.17305,0.0207 1.06453,0 2.24275,-0.18087 l 0.34106,0.30489 q -0.27388,1.58647 -0.85782,3.58117 0.925,0.43925 1.79833,0.97151 0.39274,-1.01285 0.57877,-1.90685 l 0.91467,0.32039 q -0.35139,1.2454 -0.71313,2.11356 0.88883,0.56327 1.60197,1.15755 z m -5.42084,-2.04638 q -0.22221,-0.062 -0.42375,-0.062 -0.58911,0 -0.99218,0.39791 -0.40308,0.3979 -0.40308,1.01802 0,0.35656 0.13436,0.60978 0.13953,0.24804 0.3514,0.24804 0.26871,0 0.63045,-0.60978 0.3669,-0.60978 0.7028,-1.60196 z" />
    </g>
  </g>
</svg>
