<?xml version="1.0" encoding="UTF-8" standalone="no"?>
<svg
   xmlns:dc="http://purl.org/dc/elements/1.1/"
   xmlns:cc="http://creativecommons.org/ns#"
   xmlns:rdf="http://www.w3.org/1999/02/22-rdf-syntax-ns#"
   xmlns:svg="http://www.w3.org/2000/svg"
   xmlns="http://www.w3.org/2000/svg"
   xmlns:sodipodi="http://sodipodi.sourceforge.net/DTD/sodipodi-0.dtd"
   xmlns:inkscape="http://www.inkscape.org/namespaces/inkscape"
   inkscape:version="1.0 (4035a4f, 2020-05-01)"
   sodipodi:docname="FU-bin.svg"
   id="svg21"
   version="1.1"
   overflow="hidden"
   height="14.947266"
   width="118.26591">
  <metadata
     id="metadata25">
    <rdf:RDF>
      <cc:Work
         rdf:about="">
        <dc:format>image/svg+xml</dc:format>
        <dc:type
           rdf:resource="http://purl.org/dc/dcmitype/StillImage" />
        <dc:title></dc:title>
      </cc:Work>
    </rdf:RDF>
  </metadata>
  <sodipodi:namedview
     inkscape:current-layer="svg21"
     inkscape:window-maximized="0"
     inkscape:window-y="25"
     inkscape:window-x="0"
     inkscape:cy="-1.7714822"
     inkscape:cx="171.10899"
     inkscape:zoom="1"
     fit-margin-bottom="0"
     fit-margin-right="0"
     fit-margin-left="0"
     fit-margin-top="0"
     showgrid="false"
     id="namedview23"
     inkscape:window-height="745"
     inkscape:window-width="1334"
     inkscape:pageshadow="2"
     inkscape:pageopacity="0"
     guidetolerance="10"
     gridtolerance="10"
     objecttolerance="10"
     borderopacity="1"
     bordercolor="#666666"
     pagecolor="#ffffff" />
  <defs
     id="defs13">
    <clipPath
       id="clip0">
      <rect
         id="rect10"
         height="86"
         width="368"
         y="86"
         x="990" />
    </clipPath>
  </defs>
  <g
     style="fill:#000000"
     id="g19"
     transform="translate(-991.20285,-132.77148)"
     clip-path="url(#clip0)">
    <g
       style="font-style:normal;font-variant:normal;font-weight:normal;font-stretch:normal;font-size:16px;font-family:'Yuzu Pop A [M] Bold';-inkscape-font-specification:'Yuzu Pop A [M] Bold, Normal';font-variant-ligatures:normal;font-variant-caps:normal;font-variant-numeric:normal;font-variant-east-asian:normal;fill:#ffffff"
       id="text17"
       transform="translate(990,146)"
       aria-label="空きびん 蛍光管

">
      <path
         id="path36"
         style="font-style:normal;font-variant:normal;font-weight:normal;font-stretch:normal;font-size:16px;font-family:'Yuzu Pop A [M] Bold';-inkscape-font-specification:'Yuzu Pop A [M] Bold, Normal';font-variant-ligatures:normal;font-variant-caps:normal;font-variant-numeric:normal;font-variant-east-asian:normal;fill:#ffffff"
         d="m 12.953125,-2.734375 h -0.0625 Q 10.796875,-2.875 8.6875,-2.921875 V 0.125 q 1.125,-0.03125 2.25,-0.109375 1.765625,-0.078125 3.546875,-0.078125 0.5625,0.046875 0.609375,0.609375 -0.04687,0.5625 -0.609375,0.625 -1.75,0.015625 -3.5,0.078125 Q 8.84375,1.34375 6.6875,1.359375 4.1875,1.40625 1.734375,1 1.1875,0.828125 1.234375,0.265625 1.390625,-0.296875 1.96875,-0.21875 4.703125,0.125 7.4375,0.140625 v -3.0625 q -1.9375,0 -3.890625,0.09375 -0.546875,0 -0.6875,-0.53125 Q 2.828125,-3.9375 3.390625,-4.0625 8.203125,-4.296875 13,-3.984375 13.5625,-3.875 13.5625,-3.3125 q -0.07813,0.53125 -0.609375,0.578125 z M 2.140625,-5 h -0.0625 q -0.5625,-0.0625 -0.609375,-0.625 0.0625,-0.5625 0.625,-0.609375 0.984375,0.03125 1.703125,-0.625 0.90625,-1.0625 0.9375,-2.46875 0.046875,-0.5625 0.609375,-0.625 0.578125,0.046875 0.625,0.625 -0.03125,1.90625 -1.296875,3.34375 Q 3.609375,-4.96875 2.140625,-5 Z m 10.25,-0.203125 q -0.6875,0 -1.375,-0.0625 -0.75,-0.25 -0.90625,-1.03125 Q 9.953125,-7.078125 9.90625,-7.78125 9.859375,-8.5 9.890625,-9.265625 9.96875,-9.828125 10.53125,-9.875 q 0.5625,0.0625 0.609375,0.640625 -0.0625,1.40625 0.21875,2.765625 1.109375,0.046875 2.21875,-0.046875 0.109375,-0.171875 0.125,-0.375 0.140625,-0.5625 0.71875,-0.53125 0.546875,0.140625 0.515625,0.703125 -0.09375,0.703125 -0.59375,1.1875 -0.921875,0.40625 -1.953125,0.328125 z m 1.5,-2.6875 q -0.125,0 -0.234375,-0.046875 Q 13.140625,-8.203125 13.3125,-8.75 13.53125,-9.4375 13.5,-10.15625 l -1.359375,0.03125 q -4.828125,0.15625 -9.65625,0.109375 -0.125,0.609375 0.0625,1.203125 0.21875,0.53125 -0.28125,0.828125 -0.53125,0.1875 -0.828125,-0.296875 -0.453125,-1.265625 -0.03125,-2.546875 0.15625,-0.421875 0.609375,-0.4375 2.71875,0.03125 5.4375,0 -0.0625,-0.765625 0.09375,-1.53125 0.234375,-0.515625 0.78125,-0.390625 0.515625,0.234375 0.390625,0.78125 -0.0625,0.5625 -0.015625,1.125 1.703125,-0.03125 3.40625,-0.07813 0.984375,-0.03125 1.953125,-0.04687 0.546875,0.03125 0.640625,0.5625 0.140625,1.3125 -0.234375,2.578125 -0.1875,0.359375 -0.578125,0.375 z" />
      <path
         id="path38"
         style="font-style:normal;font-variant:normal;font-weight:normal;font-stretch:normal;font-size:16px;font-family:'Yuzu Pop A [M] Bold';-inkscape-font-specification:'Yuzu Pop A [M] Bold, Normal';font-variant-ligatures:normal;font-variant-caps:normal;font-variant-numeric:normal;font-variant-east-asian:normal;fill:#ffffff"
         d="m 19.1875,-8.046875 q -0.5,-0.03125 -0.609375,-0.515625 -0.03125,-0.578125 0.53125,-0.703125 1.015625,-0.1875 1.953125,-0.546875 -0.390625,-0.609375 -0.71875,-1.265625 -0.203125,-0.53125 0.28125,-0.828125 0.53125,-0.1875 0.828125,0.28125 0.328125,0.6875 0.734375,1.296875 1.15625,-0.609375 2.1875,-1.5 0.46875,-0.3125 0.875,0.09375 0.328125,0.46875 -0.07813,0.859375 -1.0625,0.921875 -2.234375,1.5625 0.59375,0.734375 1.328125,1.34375 0.203125,0.1875 0.40625,0.359375 1.21875,-0.640625 2.21875,-1.59375 Q 27.25,-9.65625 27.75,-9.375 q 0.4375,0.359375 0.171875,0.859375 -0.96875,1.046875 -2.171875,1.734375 1.109375,0.8125 2.296875,1.5 0.375,0.265625 0.265625,0.703125 -0.15625,0.4375 -0.625,0.4375 -1.28125,-0.03125 -2.53125,0.171875 -1.234375,0.203125 -2.453125,0.640625 -1.21875,0.4375 -1.890625,1.578125 -0.15625,0.53125 0.34375,0.8125 1.796875,0.765625 3.765625,0.53125 1.96875,-0.25 3.546875,-1.40625 0.46875,-0.34375 0.875,0.0625 0.34375,0.453125 -0.04687,0.875 Q 26.84375,0.921875 23.78125,0.859375 22.015625,0.9375 20.46875,0.09375 q -1.234375,-0.828125 -0.828125,-2.234375 0.84375,-1.6875 2.5625,-2.328125 1.734375,-0.65625 3.5,-0.828125 -0.65625,-0.390625 -1.25,-0.84375 -0.03125,0.015625 -0.07813,0.03125 -2.046875,0.796875 -4.203125,0.9375 -0.390625,0 -0.765625,-0.0625 -0.5625,-0.140625 -0.515625,-0.71875 0.15625,-0.546875 0.71875,-0.5 1.9375,0.0625 3.765625,-0.59375 -0.875,-0.796875 -1.59375,-1.71875 -1.1875,0.484375 -2.5,0.71875 z" />
      <path
         id="path40"
         style="font-style:normal;font-variant:normal;font-weight:normal;font-stretch:normal;font-size:16px;font-family:'Yuzu Pop A [M] Bold';-inkscape-font-specification:'Yuzu Pop A [M] Bold, Normal';font-variant-ligatures:normal;font-variant-caps:normal;font-variant-numeric:normal;font-variant-east-asian:normal;fill:#ffffff"
         d="m 44.640625,-9.90625 q -0.25,0 -0.390625,-0.203125 -0.140625,-0.1875 -0.28125,-0.390625 -0.28125,-0.34375 -0.515625,-0.71875 -0.171875,-0.390625 0.171875,-0.640625 0.390625,-0.171875 0.640625,0.171875 0.203125,0.328125 0.4375,0.625 0.171875,0.21875 0.328125,0.4375 0.203125,0.375 -0.140625,0.640625 -0.109375,0.078125 -0.25,0.078125 z m 1.625,-0.453125 Q 45.96875,-10.375 45.84375,-10.625 q -0.203125,-0.5 -0.609375,-0.828125 -0.34375,-0.265625 -0.140625,-0.640625 0.265625,-0.34375 0.65625,-0.140625 0.625,0.46875 0.9375,1.203125 0.15625,0.40625 -0.21875,0.625 -0.09375,0.04687 -0.203125,0.04687 z m -8,10.265625 Q 36.96875,-0.140625 35.9375,-0.921875 34.09375,-2.453125 34.296875,-4.859375 34.5,-7.125 35.84375,-8.984375 34.78125,-8.71875 33.703125,-8.5625 33.140625,-8.546875 33,-9.09375 q -0.01563,-0.5625 0.53125,-0.703125 2.21875,-0.359375 4.359375,-1.015625 0.5,-0.09375 0.75,0.359375 0.15625,0.5 -0.28125,0.78125 -2.515625,1.796875 -2.828125,4.890625 -0.171875,1.734375 1.140625,2.859375 1.09375,0.875 2.390625,0.421875 1.28125,-0.78125 1.96875,-2.078125 0.703125,-1.3125 1.140625,-2.703125 Q 42.625,-7.671875 42.8125,-9.140625 42.921875,-9.625 43.40625,-9.6875 q 0.5,0.015625 0.640625,0.5 0.28125,1.390625 0.75,2.78125 0.46875,1.375 1.65625,2.234375 0.5,0.25 0.359375,0.796875 -0.25,0.5 -0.796875,0.359375 Q 44.09375,-4.15625 43.5,-6.359375 43,-4.59375 42.109375,-2.953125 41.21875,-1.3125 39.578125,-0.375 q -0.625,0.28125 -1.3125,0.28125 z" />
      <path
         id="path42"
         style="font-style:normal;font-variant:normal;font-weight:normal;font-stretch:normal;font-size:16px;font-family:'Yuzu Pop A [M] Bold';-inkscape-font-specification:'Yuzu Pop A [M] Bold, Normal';font-variant-ligatures:normal;font-variant-caps:normal;font-variant-numeric:normal;font-variant-east-asian:normal;fill:#ffffff"
         d="M 58.296875,0.8125 Q 56.46875,0.796875 55.65625,-0.828125 55.203125,-1.96875 55.09375,-3.1875 q -0.01563,-0.65625 -0.296875,-1.21875 -2.40625,1.984375 -4.203125,4.546875 -0.375,0.421875 -0.859375,0.140625 -0.4375,-0.359375 -0.15625,-0.859375 3.265625,-4.859375 4.390625,-10.578125 0.125,-0.546875 0.6875,-0.53125 0.5625,0.109375 0.546875,0.6875 -0.5,3.203125 -1.890625,6.15625 0.671875,-0.671875 1.578125,-0.796875 0.84375,0.109375 1.109375,0.84375 0.28125,0.71875 0.328125,1.453125 0.07813,1.046875 0.453125,2.015625 0.53125,1 1.671875,0.890625 2.65625,-0.625 3.296875,-3.375 0.203125,-0.53125 0.765625,-0.421875 0.53125,0.203125 0.421875,0.765625 -0.90625,3.5625 -4.40625,4.28125 z" />
      <path
         id="path44"
         style="font-style:normal;font-variant:normal;font-weight:normal;font-stretch:normal;font-size:16px;font-family:'Yuzu Pop A [M] Bold';-inkscape-font-specification:'Yuzu Pop A [M] Bold, Normal';font-variant-ligatures:normal;font-variant-caps:normal;font-variant-numeric:normal;font-variant-east-asian:normal;fill:#ffffff"
         d="m 76.046875,-1.921875 q -0.453125,-0.03125 -0.59375,-0.453125 -0.53125,-1.84375 -0.734375,-3.734375 0.04687,-0.5625 0.609375,-0.625 0.296875,0.03125 0.453125,0.1875 0.04687,-0.03125 0.109375,-0.046875 1.515625,-0.28125 3.03125,-0.34375 H 79.375 v -1.234375 q 0.04687,-0.578125 0.625,-0.625 0.578125,0.046875 0.625,0.625 v 1.21875 l 1.359375,0.03125 q 1.53125,0.078125 2.890625,0.828125 0.5625,0.859375 0.359375,1.875 -0.203125,1.015625 -0.484375,1.921875 -0.09375,0.21875 -0.265625,0.328125 -0.140625,0.359375 -0.578125,0.390625 H 83.875 l -0.78125,-0.03125 q -1.234375,-0.109375 -2.46875,-0.125 v 1.34375 Q 81.9375,-0.453125 83.25,-0.5 83,-0.8125 83.1875,-1.21875 q 0.34375,-0.4375 0.859375,-0.203125 1.359375,0.828125 1.84375,2.328125 0.0625,0.578125 -0.5,0.734375 H 85.28125 q -0.484375,-0.03125 -0.609375,-0.5 -0.09375,-0.234375 -0.21875,-0.453125 -4.71875,0.171875 -9.421875,0.5 h -0.0625 Q 74.4375,1.140625 74.359375,0.625 q 0,-0.5625 0.546875,-0.671875 2.234375,-0.15625 4.46875,-0.28125 V -1.75 q -1.25,0.03125 -2.484375,0.125 -0.46875,0.03125 -0.640625,-0.328125 -0.01563,0.015625 -0.03125,0.015625 -0.07813,0.015625 -0.171875,0.015625 z M 86.078125,-6.9375 q -0.109375,0 -0.21875,-0.046875 Q 85.34375,-7.234375 85.5,-7.78125 85.734375,-8.5625 85.6875,-9.375 l -1.375,0.03125 q -4.8125,0.171875 -9.625,0.125 -0.140625,0.6875 0.0625,1.359375 0.1875,0.53125 -0.3125,0.8125 -0.53125,0.1875 -0.8125,-0.3125 -0.453125,-1.328125 -0.04687,-2.671875 0.171875,-0.4375 0.625,-0.4375 0.984375,0.01563 1.953125,0.01563 -0.28125,-0.453125 -0.703125,-0.8125 -0.4375,-0.359375 -0.1875,-0.859375 0.34375,-0.453125 0.859375,-0.203125 0.953125,0.765625 1.453125,1.875 1.203125,0 2.40625,-0.01563 -0.07813,-0.09375 -0.125,-0.203125 -0.34375,-0.8125 -1,-1.375 -0.4375,-0.359375 -0.1875,-0.859375 0.359375,-0.4375 0.859375,-0.1875 0.984375,0.78125 1.484375,1.953125 0.109375,0.40625 -0.125,0.65625 l 1.046875,-0.03125 q 1,-0.84375 1.859375,-1.859375 l 0.28125,-0.3125 q 0.421875,-0.375 0.875,-0.01563 0.375,0.4375 0.01563,0.875 l -0.25,0.28125 q -0.421875,0.515625 -0.890625,0.984375 0.234375,-0.01563 0.453125,-0.01563 1,-0.03125 1.984375,-0.04687 0.546875,0.01563 0.625,0.5625 0.140625,1.390625 -0.234375,2.734375 -0.171875,0.375 -0.578125,0.390625 z m -2.09375,1.71875 Q 82.75,-5.6875 81.4375,-5.71875 H 80.625 v 2.734375 q 1.265625,0.015625 2.546875,0.125 Q 83.40625,-2.84375 83.625,-2.828125 84.0625,-4 83.984375,-5.21875 Z M 78.8125,-5.703125 Q 77.5,-5.65625 76.203125,-5.390625 76.125,-5.375 76.0625,-5.375 q 0.1875,1.28125 0.5625,2.546875 0.03125,0 0.0625,-0.015625 1.34375,-0.125 2.6875,-0.140625 v -2.71875 z" />
      <path
         id="path46"
         style="font-style:normal;font-variant:normal;font-weight:normal;font-stretch:normal;font-size:16px;font-family:'Yuzu Pop A [M] Bold';-inkscape-font-specification:'Yuzu Pop A [M] Bold, Normal';font-variant-ligatures:normal;font-variant-caps:normal;font-variant-numeric:normal;font-variant-east-asian:normal;fill:#ffffff"
         d="m 102.17188,-4.734375 q -0.0312,0 -0.0625,-0.015625 -1.45313,-0.078125 -2.92188,-0.125 0.04687,0.109375 0.0625,0.265625 -0.07813,2.375 0.28125,4.71875 1.03125,0.078125 2.04688,-0.046875 0.1875,-0.59375 0.15625,-1.21875 0,-0.578125 0.5625,-0.671875 0.5625,0 0.67187,0.546875 0.0937,1.140625 -0.42187,2.15625 -0.90625,0.625 -2.03125,0.515625 -0.718755,0 -1.42188,-0.09375 Q 98.46875,1.125 98.359375,0.4375 97.875,-2.078125 98.015625,-4.640625 q 0.01563,-0.15625 0.07813,-0.265625 -2.03125,-0.046875 -4.046875,-0.046875 0.03125,0.09375 0.04687,0.21875 -0.03125,1.5 -0.40625,2.984375 -0.359375,1.46875 -1.375,2.625 -0.859375,0.84375 -2.046875,0.84375 h -0.0625 Q 89.625,1.65625 89.59375,1.078125 89.671875,0.53125 90.21875,0.46875 90.9375,0.5 91.453125,-0.015625 92.90625,-2.125 92.84375,-4.734375 92.859375,-4.84375 92.875,-4.9375 q -1.390625,0.015625 -2.796875,0.0625 -0.59375,0 -0.65625,-0.59375 0.04687,-0.578125 0.609375,-0.640625 2.671875,-0.09375 5.34375,-0.078125 -0.09375,-2.453125 -0.04687,-4.90625 v -1.421875 q 0.0625,-0.5625 0.625,-0.609375 0.5625,0.04687 0.625,0.609375 0,0.71875 -0.01563,1.421875 -0.0625,2.453125 0.0625,4.921875 2.8125,0.03125 5.60938,0.203125 0.5625,0.09375 0.5625,0.671875 -0.0937,0.515625 -0.625,0.5625 z M 93.78125,-6.5625 Q 93.421875,-6.578125 93.234375,-6.890625 92.125,-8.53125 90.53125,-9.734375 q -0.421875,-0.375 -0.125,-0.859375 0.390625,-0.421875 0.875,-0.125 1.828125,1.34375 3.0625,3.25 0.203125,0.53125 -0.265625,0.84375 -0.140625,0.0625 -0.296875,0.0625 z m 4.421875,0 Q 98,-6.5625 97.84375,-6.671875 97.40625,-7.03125 97.6875,-7.53125 q 1.265625,-1.75 2.76563,-3.3125 0.4375,-0.359375 0.875,0 0.375,0.4375 0,0.875 -1.42188,1.484375 -2.625005,3.140625 -0.1875,0.25 -0.5,0.265625 z" />
      <path
         id="path48"
         style="font-style:normal;font-variant:normal;font-weight:normal;font-stretch:normal;font-size:16px;font-family:'Yuzu Pop A [M] Bold';-inkscape-font-specification:'Yuzu Pop A [M] Bold, Normal';font-variant-ligatures:normal;font-variant-caps:normal;font-variant-numeric:normal;font-variant-east-asian:normal;fill:#ffffff"
         d="m 108.46875,1.6875 q -0.53125,-0.046875 -0.625,-0.578125 -0.0781,-2.6875 -0.0937,-5.375 0,-0.640625 -0.0156,-1.28125 0.0469,-0.5625 0.60937,-0.640625 0.15625,0.015625 0.26563,0.0625 1.67187,-0.1875 3.39062,-0.21875 1.70313,-0.03125 3.3125,0.515625 0.51563,0.515625 0.39063,1.21875 -0.125,0.6875 -0.39063,1.28125 -0.0937,0.203125 -0.26562,0.296875 -0.15625,0.21875 -0.48438,0.25 h -0.0312 q -0.29687,-0.015625 -0.57812,-0.03125 -2.3125,-0.15625 -4.60938,0 -0.1875,0 -0.32812,-0.046875 V -2.25 q 1.09375,-0.140625 2.1875,-0.171875 1.29687,-0.03125 2.60937,0.015625 1.3125,0.046875 2.53125,0.546875 0.5625,0.578125 0.40625,1.359375 -0.14062,0.765625 -0.4375,1.4375 -0.10937,0.203125 -0.28125,0.296875 -0.14062,0.25 -0.51562,0.28125 H 115.5 Q 115.17188,1.5 114.82813,1.484375 q -2.70313,-0.1875 -5.39063,0 -0.26562,0 -0.4375,-0.109375 -0.14062,0.265625 -0.5,0.3125 z m 8.90625,-6.84375 q -0.15625,0 -0.29687,-0.078125 -0.48438,-0.328125 -0.23438,-0.84375 0.125,-0.28125 0.125,-0.59375 -0.60937,0 -1.23437,0.015625 -4.34375,0.109375 -8.6875,0.078125 -0.0312,0.234375 0.0469,0.4375 0.26563,0.5 -0.17187,0.859375 -0.5,0.265625 -0.85938,-0.171875 -0.48437,-0.96875 -0.0625,-1.984375 0.17188,-0.375 0.59375,-0.390625 2.4375,0.03125 4.875,0.015625 -0.0156,-0.484375 0.125,-0.96875 0.29688,-0.484375 0.82813,-0.296875 0.46875,0.28125 0.29687,0.796875 -0.0312,0.234375 -0.0156,0.453125 1.51562,-0.015625 3.01562,-0.0625 l 1.82813,-0.03125 q 0.51562,0.03125 0.625,0.546875 0.14062,1 -0.25,1.921875 -0.1875,0.296875 -0.54688,0.296875 z M 105.25,-9.140625 q -0.42187,-0.015625 -0.57812,-0.40625 -0.15625,-0.5625 0.375,-0.796875 1.71875,-0.59375 2,-2.40625 0.17187,-0.546875 0.73437,-0.46875 0.54688,0.171875 0.48438,0.734375 -0.0469,0.265625 -0.10938,0.515625 h 3.25 q 0.57813,0.04687 0.625,0.625 -0.0625,0.5625 -0.625,0.609375 h -2.0625 q 0.57813,0.53125 1.01563,1.203125 0.28125,0.5 -0.15625,0.859375 -0.15625,0.09375 -0.34375,0.109375 -0.32813,0 -0.51563,-0.28125 -0.6875,-1.015625 -1.75,-1.625 -0.0625,-0.04687 -0.125,-0.109375 -0.71875,0.953125 -2.01562,1.40625 -0.0937,0.03125 -0.20313,0.03125 z m 6.28125,0 q -0.42187,-0.015625 -0.57812,-0.40625 -0.15625,-0.5625 0.375,-0.796875 1.71875,-0.59375 2,-2.40625 0.17187,-0.546875 0.73437,-0.46875 0.54688,0.171875 0.46875,0.734375 -0.0469,0.265625 -0.10937,0.515625 h 4.42187 q 0.57813,0.04687 0.625,0.625 -0.0625,0.5625 -0.625,0.609375 h -2.92187 q 0.57812,0.53125 1.03125,1.203125 0.28125,0.5 -0.17188,0.859375 -0.15625,0.109375 -0.34375,0.109375 -0.32812,-0.015625 -0.51562,-0.28125 -0.67188,-1.015625 -1.73438,-1.625 -0.15625,-0.125 -0.23437,-0.265625 h -0.0937 q -0.71875,1.078125 -2.125,1.5625 -0.0937,0.03125 -0.20313,0.03125 z M 109,-4.28125 v 0.296875 q 0.0781,-0.046875 0.1875,-0.0625 2.40625,-0.15625 4.8125,0 h 0.26563 q 0.15625,-0.40625 0.21875,-0.828125 -2.75,-0.421875 -5.5,-0.046875 0,0.3125 0.0156,0.640625 z m 6.54688,3.390625 q -3.23438,-0.5625 -6.5,-0.125 l 0.0312,1.328125 q 0.0937,-0.046875 0.20312,-0.0625 2.79688,-0.1875 5.60938,-0.015625 L 115.25,0.25 q 0.25,-0.546875 0.29688,-1.140625 z" />
    </g>
  </g>
</svg>
