<?xml version="1.0" encoding="UTF-8" standalone="no"?>
<svg
   xmlns:dc="http://purl.org/dc/elements/1.1/"
   xmlns:cc="http://creativecommons.org/ns#"
   xmlns:rdf="http://www.w3.org/1999/02/22-rdf-syntax-ns#"
   xmlns:svg="http://www.w3.org/2000/svg"
   xmlns="http://www.w3.org/2000/svg"
   xmlns:sodipodi="http://sodipodi.sourceforge.net/DTD/sodipodi-0.dtd"
   xmlns:inkscape="http://www.inkscape.org/namespaces/inkscape"
   width="197.11009"
   height="24.912142"
   overflow="hidden"
   version="1.1"
   id="svg21"
   sodipodi:docname="FU-bin.svg"
   inkscape:version="1.0 (4035a4f, 2020-05-01)">
  <metadata
     id="metadata25">
    <rdf:RDF>
      <cc:Work
         rdf:about="">
        <dc:format>image/svg+xml</dc:format>
        <dc:type
           rdf:resource="http://purl.org/dc/dcmitype/StillImage" />
        <dc:title />
      </cc:Work>
    </rdf:RDF>
  </metadata>
  <sodipodi:namedview
     inkscape:document-rotation="0"
     pagecolor="#ffffff"
     bordercolor="#666666"
     borderopacity="1"
     objecttolerance="10"
     gridtolerance="10"
     guidetolerance="10"
     inkscape:pageopacity="0"
     inkscape:pageshadow="2"
     inkscape:window-width="1440"
     inkscape:window-height="847"
     id="namedview23"
     showgrid="false"
     fit-margin-top="0"
     fit-margin-left="0"
     fit-margin-right="0"
     fit-margin-bottom="0"
     inkscape:zoom="2.0450928"
     inkscape:cx="187.47321"
     inkscape:cy="8.0034588"
     inkscape:window-x="0"
     inkscape:window-y="25"
     inkscape:window-maximized="1"
     inkscape:current-layer="svg21" />
  <defs
     id="defs13">
    <clipPath
       id="clip0">
      <rect
         x="990"
         y="80"
         width="377"
         height="98"
         id="rect10" />
    </clipPath>
  </defs>
  <g
     clip-path="url(#clip0)"
     transform="translate(-992.00475,-122.95245)"
     id="g19">
    <g
       style="font-weight:400;font-size:50px;font-family:PopRumCute, PopRumCute_MSFontService, sans-serif;fill:#000000"
       id="text17"
       transform="translate(990,145)"
       aria-label="空きびん 蛍光管
">
      <path
         id="path20"
         style="font-style:normal;font-variant:normal;font-weight:normal;font-stretch:normal;font-size:26.6667px;font-family:'Yuzu Pop A [M] Bold';-inkscape-font-specification:'Yuzu Pop A [M] Bold, Normal';font-variant-ligatures:normal;font-variant-caps:normal;font-variant-numeric:normal;font-variant-east-asian:normal;fill:#ffffff"
         d="m 21.588569,-4.5572974 h -0.104167 q -3.489588,-0.2343753 -7.005217,-0.3125004 v 5.0781314 q 1.875002,-0.0520834 3.750005,-0.1822919 2.942712,-0.1302085 5.911466,-0.1302085 0.937501,0.0781251 1.015626,1.01562629 Q 25.078157,1.8489607 24.140656,1.9531275 21.223985,1.9791692 18.307315,2.083336 14.739602,2.2395862 11.145847,2.2656279 6.9791755,2.343753 2.8906287,1.6666688 1.9791692,1.3802101 2.0572943,0.44270889 2.3177113,-0.49479229 3.2812541,-0.36458379 7.8385516,0.2083336 12.395849,0.2343753 v -5.1041731 q -3.2291708,0 -6.4843832,0.1562502 -0.9114595,0 -1.1458348,-0.8854178 -0.052083,-0.9635429 0.8854178,-1.1718765 8.0208432,-0.3906255 16.0156452,0.1302085 0.937501,0.1822919 0.937501,1.1197931 -0.130208,0.8854178 -1.015626,0.9635429 z M 3.5677128,-8.3333439 H 3.463546 q -0.9375011,-0.1041668 -1.0156262,-1.0416679 0.1041668,-0.9375012 1.0416679,-1.0156262 1.6406271,0.05208 2.8385453,-1.041668 1.5104186,-1.770836 1.562502,-4.114589 0.078125,-0.937501 1.0156263,-1.041668 0.9635428,0.07813 1.0416679,1.041668 -0.052083,3.177088 -2.161461,5.5729241 -1.7708356,1.6927104 -4.2187554,1.640627 z M 20.651068,-8.671886 q -1.145835,0 -2.29167,-0.1041668 -1.250001,-0.4166671 -1.510418,-1.7187522 -0.260417,-1.302085 -0.338542,-2.473961 -0.07813,-1.197919 -0.02604,-2.473962 0.130208,-0.937501 1.06771,-1.015626 0.937501,0.104167 1.015626,1.06771 -0.104167,2.343753 0.364584,4.60938 1.84896,0.07813 3.697921,-0.07813 0.182292,-0.286458 0.208334,-0.625001 0.234375,-0.937501 1.197918,-0.885417 0.911459,0.234375 0.859376,1.171876 -0.15625,1.171877 -0.989585,1.9791694 -1.53646,0.6770841 -3.255212,0.5468756 z m 2.500003,-4.479172 q -0.208334,0 -0.390626,-0.07813 -0.859376,-0.442709 -0.572917,-1.354169 0.364584,-1.145835 0.3125,-2.343753 l -2.265627,0.05208 q -8.046886,0.260417 -16.0937708,0.182292 -0.2083336,1.015626 0.1041668,2.00521 0.3645838,0.885418 -0.4687506,1.380211 -0.8854177,0.3125 -1.38021,-0.494793 -0.7552093,-2.109377 -0.052083,-4.244797 0.260417,-0.703126 1.0156262,-0.729167 4.5312558,0.05208 9.0625118,0 -0.104167,-1.276044 0.15625,-2.552087 0.390625,-0.859376 1.302085,-0.651042 0.859376,0.390625 0.651042,1.302085 -0.104166,0.937501 -0.02604,1.875002 2.838545,-0.05208 5.67709,-0.130209 1.640627,-0.05208 3.255213,-0.07813 0.911459,0.05208 1.067709,0.937501 0.234376,2.187503 -0.390625,4.296881 -0.312501,0.598959 -0.963543,0.625001 z" />
      <path
         id="path22"
         style="font-style:normal;font-variant:normal;font-weight:normal;font-stretch:normal;font-size:26.6667px;font-family:'Yuzu Pop A [M] Bold';-inkscape-font-specification:'Yuzu Pop A [M] Bold, Normal';font-variant-ligatures:normal;font-variant-caps:normal;font-variant-numeric:normal;font-variant-east-asian:normal;fill:#ffffff"
         d="m 31.979207,-13.411475 q -0.833334,-0.05208 -1.015626,-0.859376 -0.05208,-0.963543 0.885418,-1.171877 1.69271,-0.3125 3.255212,-0.911459 -0.651042,-1.015627 -1.197918,-2.109378 -0.338542,-0.885418 0.46875,-1.38021 0.885418,-0.3125 1.380211,0.468751 0.546875,1.145834 1.223959,2.161461 1.927086,-1.015627 3.645838,-2.500004 0.781251,-0.520834 1.458336,0.156251 0.546875,0.781251 -0.130209,1.432293 -1.770836,1.53646 -3.723963,2.60417 0.989585,1.22396 2.213544,2.239586 0.338543,0.312501 0.677085,0.598959 2.031252,-1.067709 3.697921,-2.656253 0.598959,-0.755209 1.432293,-0.286459 0.729168,0.598959 0.286459,1.432294 -1.614585,1.744794 -3.619796,2.890628 1.848961,1.3541688 3.82813,2.5000035 0.625001,0.4427089 0.442709,1.1718765 -0.260417,0.7291676 -1.041668,0.7291676 -2.13542,-0.052083 -4.218756,0.2864587 -2.057294,0.3385421 -4.088547,1.0677097 -2.031252,0.7291676 -3.151045,2.6302116 -0.260417,0.8854178 0.572917,1.3541684 2.994796,1.2760433 6.27605,0.88541781 3.281254,-0.41666721 5.911466,-2.34375301 0.781251,-0.5729173 1.458335,0.1041668 0.572917,0.7552093 -0.07813,1.4583352 -4.088547,2.9947955 -9.19272,2.8906287 -2.942712,0.1302085 -5.520841,-1.2760433 -2.057294,-1.3802101 -1.38021,-3.723963 1.406252,-2.8125036 4.270839,-3.8802133 2.890629,-1.0937514 5.833341,-1.3802101 -1.093752,-0.6510424 -2.083336,-1.4062518 -0.05208,0.02604 -0.130209,0.05208 -3.411462,1.3281271 -7.005217,1.5625024 -0.651042,0 -1.276043,-0.1041668 -0.937501,-0.2343753 -0.859376,-1.1979181 0.260417,-0.9114595 1.197918,-0.8333345 3.229171,0.104167 6.27605,-0.989585 -1.458336,-1.328126 -2.656254,-2.864586 -1.979169,0.807292 -4.166672,1.197918 z" />
      <path
         id="path24"
         style="font-style:normal;font-variant:normal;font-weight:normal;font-stretch:normal;font-size:26.6667px;font-family:'Yuzu Pop A [M] Bold';-inkscape-font-specification:'Yuzu Pop A [M] Bold, Normal';font-variant-ligatures:normal;font-variant-caps:normal;font-variant-numeric:normal;font-variant-east-asian:normal;fill:#ffffff"
         d="m 74.401136,-16.510438 q -0.416668,0 -0.651043,-0.338542 -0.234375,-0.3125 -0.46875,-0.651042 -0.468751,-0.572918 -0.859376,-1.197918 -0.286459,-0.651043 0.286458,-1.06771 0.651043,-0.286459 1.06771,0.286459 0.338542,0.546875 0.729167,1.041668 0.286459,0.364583 0.546876,0.729167 0.338542,0.625001 -0.234375,1.06771 -0.182292,0.130208 -0.416667,0.130208 z m 2.708336,-0.755209 q -0.494792,-0.02604 -0.703125,-0.442709 -0.338543,-0.833334 -1.015627,-1.38021 -0.572917,-0.442709 -0.234375,-1.067709 0.442709,-0.572918 1.093751,-0.234376 1.041668,0.781251 1.562502,2.005211 0.260417,0.677084 -0.364583,1.041668 -0.156251,0.07813 -0.338543,0.07813 z m -13.33335,17.1093968 q -2.161461,-0.0781251 -3.880213,-1.3802101 -3.072921,-2.5520865 -2.734378,-6.5625083 0.338542,-3.7760464 2.578128,-6.8750084 -1.770836,0.442709 -3.567713,0.703126 -0.937501,0.02604 -1.171877,-0.885418 -0.02604,-0.937501 0.885418,-1.171877 3.697922,-0.598959 7.265634,-1.69271 0.833335,-0.15625 1.250002,0.598959 0.260417,0.833334 -0.468751,1.302085 -4.192713,2.994795 -4.713547,8.1510519 -0.286459,2.8906287 1.901044,4.7656311 1.822919,1.4583351 3.98438,0.7031258 2.135419,-1.3020849 3.281254,-3.463546 1.171877,-2.1875028 1.901044,-4.5052138 0.755209,-2.317711 1.06771,-4.765631 0.182292,-0.807293 0.989584,-0.91146 0.833335,0.02604 1.06771,0.833335 0.468751,2.317711 1.250002,4.635422 0.781251,2.2916697 2.76042,3.7239632 0.833334,0.4166672 0.598959,1.3281267 -0.416667,0.8333344 -1.328127,0.5989591 -3.203129,-1.9010441 -4.192713,-5.572924 -0.833335,2.9427123 -2.317712,5.6770908 -1.484377,2.7343784 -4.218755,4.29688041 -1.041668,0.46875059 -2.187503,0.46875059 z" />
      <path
         id="path26"
         style="font-style:normal;font-variant:normal;font-weight:normal;font-stretch:normal;font-size:26.6667px;font-family:'Yuzu Pop A [M] Bold';-inkscape-font-specification:'Yuzu Pop A [M] Bold, Normal';font-variant-ligatures:normal;font-variant-caps:normal;font-variant-numeric:normal;font-variant-east-asian:normal;fill:#ffffff"
         d="m 97.161579,1.3541684 q -3.046879,-0.026042 -4.401047,-2.7343785 -0.755209,-1.901044 -0.937501,-3.9322966 -0.02604,-1.0937514 -0.494793,-2.0312526 -4.010421,3.3072959 -7.005217,7.5781346 -0.625,0.70312588 -1.432293,0.23437529 -0.729168,-0.59895909 -0.260417,-1.43229347 5.442715,-8.09896862 7.317717,-17.63023012 0.208334,-0.91146 1.145835,-0.885418 0.937501,0.182292 0.91146,1.145835 -0.833335,5.338548 -3.151046,10.2604291 1.119793,-1.119793 2.630212,-1.3281266 1.406251,0.1822919 1.84896,1.4062517 0.468751,1.1979182 0.546876,2.4218781 0.130209,1.7447939 0.755209,3.3593792 0.885418,1.66666881 2.786462,1.48437691 4.427094,-1.04166801 5.494794,-5.62500711 0.33855,-0.8854178 1.27605,-0.7031259 0.88542,0.3385421 0.70312,1.2760433 -1.51041,5.9375075 -7.343755,7.1354257 z" />
      <path
         id="path28"
         style="font-style:normal;font-variant:normal;font-weight:normal;font-stretch:normal;font-size:26.6667px;font-family:'Yuzu Pop A [M] Bold';-inkscape-font-specification:'Yuzu Pop A [M] Bold, Normal';font-variant-ligatures:normal;font-variant-caps:normal;font-variant-numeric:normal;font-variant-east-asian:normal;fill:#ffffff"
         d="m 126.74495,-3.203129 q -0.75521,-0.052083 -0.98958,-0.7552093 -0.88542,-3.0729206 -1.22396,-6.2239667 0.0781,-0.937501 1.01562,-1.041668 0.4948,0.05208 0.75521,0.312501 0.0781,-0.05208 0.1823,-0.07813 2.52604,-0.468751 5.05209,-0.572918 h 0.7552 v -2.057294 q 0.0781,-0.963543 1.04167,-1.041668 0.96355,0.07813 1.04167,1.041668 v 2.031253 l 2.26563,0.05208 q 2.55209,0.130209 4.81771,1.38021 0.9375,1.4322936 0.59896,3.1250041 -0.33854,1.6927105 -0.80729,3.2031291 -0.15625,0.3645838 -0.44271,0.5468757 -0.23437,0.598959 -0.96354,0.6510424 h -0.0521 l -1.30208,-0.052083 q -2.05729,-0.1822919 -4.11459,-0.2083336 v 2.23958621 q 2.1875,-0.1041668 4.37501,-0.1822919 -0.41667,-0.52083401 -0.10417,-1.19791821 0.57292,-0.7291676 1.43229,-0.3385421 2.26563,1.38021012 3.07292,3.8802133 0.10417,0.9635429 -0.83333,1.2239599 h -0.18229 q -0.8073,-0.052083 -1.01563,-0.8333344 -0.15625,-0.3906255 -0.36458,-0.7552093 -7.8646,0.2864587 -15.70315,0.8333344 h -0.10416 q -0.88542,-0.078125 -1.01563,-0.9375012 0,-0.9375012 0.91146,-1.1197931 3.72396,-0.26041699 7.44792,-0.46875059 V -2.9166704 q -2.08333,0.052083 -4.14063,0.2083336 -0.78125,0.052083 -1.06771,-0.5468756 -0.026,0.026042 -0.0521,0.026042 -0.13021,0.026042 -0.28646,0.026042 z m 16.71877,-8.359386 q -0.18229,0 -0.36458,-0.07813 -0.85938,-0.416667 -0.59896,-1.328126 0.39063,-1.302085 0.3125,-2.656254 l -2.29167,0.05208 q -8.02084,0.286458 -16.04169,0.208333 -0.23437,1.145835 0.10417,2.265628 0.3125,0.885418 -0.52083,1.354168 -0.88542,0.312501 -1.35417,-0.520833 -0.75521,-2.213545 -0.0781,-4.453131 0.28646,-0.729168 1.04167,-0.729168 1.64063,0.02604 3.25521,0.02604 -0.46875,-0.755209 -1.17187,-1.354168 -0.72917,-0.598959 -0.3125,-1.432294 0.57292,-0.755209 1.43229,-0.338542 1.58854,1.276043 2.42188,3.125004 2.00521,0 4.01042,-0.02604 -0.13021,-0.15625 -0.20833,-0.338542 -0.57292,-1.354168 -1.66667,-2.291669 -0.72917,-0.598959 -0.3125,-1.432294 0.59896,-0.729167 1.43229,-0.3125 1.64063,1.302085 2.47396,3.255212 0.1823,0.677084 -0.20833,1.093752 l 1.74479,-0.05208 q 1.66667,-1.406252 3.09897,-3.098962 l 0.46875,-0.520834 q 0.70312,-0.625001 1.45833,-0.02604 0.625,0.729168 0.026,1.458335 l -0.41666,0.468751 q -0.70313,0.859376 -1.48438,1.640627 0.39062,-0.02604 0.75521,-0.02604 1.66667,-0.05208 3.30729,-0.07813 0.91146,0.02604 1.04167,0.937501 0.23438,2.317712 -0.39062,4.557298 -0.28646,0.625001 -0.96355,0.651042 z m -3.48958,2.8645873 q -2.0573,-0.7812509 -4.2448,-0.8333343 h -1.35417 v 4.5572974 q 2.10938,0.026042 4.2448,0.2083336 0.39062,0.026042 0.75521,0.052083 0.72916,-1.9531275 0.59896,-3.9843801 z m -8.61981,-0.8072926 q -2.1875,0.078125 -4.34896,0.5208339 -0.13021,0.026042 -0.23438,0.026042 0.3125,2.1354194 0.93751,4.2447971 0.0521,0 0.10416,-0.026042 2.23959,-0.2083336 4.47917,-0.2343753 v -4.5312557 z" />
      <path
         id="path30"
         style="font-style:normal;font-variant:normal;font-weight:normal;font-stretch:normal;font-size:26.6667px;font-family:'Yuzu Pop A [M] Bold';-inkscape-font-specification:'Yuzu Pop A [M] Bold, Normal';font-variant-ligatures:normal;font-variant-caps:normal;font-variant-numeric:normal;font-variant-east-asian:normal;fill:#ffffff"
         d="m 170.28668,-7.890635 q -0.0521,0 -0.10417,-0.026042 -2.42188,-0.1302085 -4.8698,-0.2083336 0.0781,0.1822919 0.10417,0.4427089 -0.13021,3.9583384 0.46875,7.8645933 1.71875,0.13020849 3.41146,-0.0781251 0.3125,-0.98958459 0.26042,-2.0312526 0,-0.9635429 0.9375,-1.1197931 0.9375,0 1.11979,0.9114595 0.15625,1.9010441 -0.70312,3.5937546 -1.51042,1.041668 -3.38542,0.8593761 -1.19792,0 -2.3698,-0.1562502 -1.04167,-0.2864587 -1.22396,-1.43229351 -0.80729,-4.19271359 -0.57292,-8.46355239 0.026,-0.260417 0.13021,-0.4427089 -3.38542,-0.078125 -6.7448,-0.078125 0.0521,0.1562502 0.0781,0.3645838 -0.0521,2.5000032 -0.67709,4.9739646 -0.59896,2.44791981 -2.29167,4.3750056 -1.43229,1.4062518 -3.41146,1.4062518 h -0.10417 q -0.96354,-0.1041668 -1.01562,-1.0677097 0.13021,-0.91145951 1.04167,-1.01562631 1.19791,0.0520834 2.05729,-0.80729269 2.42188,-3.5156294 2.31771,-7.8645933 0.026,-0.1822919 0.0521,-0.3385421 -2.31772,0.026042 -4.66147,0.1041668 -0.98958,0 -1.09375,-0.9895846 0.0781,-0.9635431 1.01563,-1.0677101 4.45313,-0.15625 8.90626,-0.130208 -0.15625,-4.088547 -0.0781,-8.177094 v -2.369794 q 0.10417,-0.937502 1.04167,-1.015627 0.9375,0.07813 1.04167,1.015627 0,1.197918 -0.026,2.369794 -0.10417,4.088547 0.10416,8.203136 4.68751,0.05208 9.34897,0.3385418 0.9375,0.1562502 0.9375,1.119793 -0.15625,0.8593761 -1.04166,0.9375012 z m -13.9844,-3.046879 q -0.59896,-0.02604 -0.91146,-0.546876 -1.84896,-2.734378 -4.50521,-4.739589 -0.70313,-0.625001 -0.20833,-1.432293 0.65104,-0.703126 1.45833,-0.208334 3.04688,2.239586 5.10417,5.416674 0.33855,0.885417 -0.4427,1.406251 -0.23438,0.104167 -0.4948,0.104167 z m 7.3698,0 q -0.33854,0 -0.59895,-0.182292 -0.72917,-0.598959 -0.26042,-1.432293 2.10938,-2.916671 4.60938,-5.520841 0.72917,-0.598959 1.45833,0 0.62501,0.729168 0,1.458336 -2.36979,2.473961 -4.375,5.234381 -0.3125,0.416667 -0.83334,0.442709 z" />
      <path
         id="path32"
         style="font-style:normal;font-variant:normal;font-weight:normal;font-stretch:normal;font-size:26.6667px;font-family:'Yuzu Pop A [M] Bold';-inkscape-font-specification:'Yuzu Pop A [M] Bold, Normal';font-variant-ligatures:normal;font-variant-caps:normal;font-variant-numeric:normal;font-variant-east-asian:normal;fill:#ffffff"
         d="m 180.78148,2.8125036 q -0.88541,-0.078125 -1.04166,-0.9635429 -0.13021,-4.4791724 -0.15625,-8.9583447 0,-1.0677097 -0.026,-2.1354193 0.0781,-0.9375017 1.01563,-1.0677097 0.26042,0.02604 0.44271,0.104167 2.78646,-0.312501 5.65105,-0.364584 2.83854,-0.05208 5.52084,0.8593761 0.85937,0.859376 0.65104,2.0312525 -0.20833,1.1458348 -0.65104,2.1354194 -0.15625,0.3385421 -0.44271,0.4947923 -0.26042,0.3645838 -0.80729,0.4166672 h -0.0521 q -0.49479,-0.026042 -0.96354,-0.052083 -3.85417,-0.260417 -7.6823,0 -0.3125,0 -0.54688,-0.078125 v 1.0156263 q 1.82292,-0.2343753 3.64584,-0.2864587 2.16146,-0.052083 4.34896,0.026042 2.18751,0.078125 4.21876,0.9114595 0.9375,0.9635428 0.67708,2.26562781 -0.23437,1.27604328 -0.72916,2.39583639 -0.1823,0.3385421 -0.46875,0.4947923 -0.23438,0.4166672 -0.85938,0.4687506 h -0.026 q -0.54688,-0.026042 -1.1198,-0.052083 -4.50521,-0.3125004 -8.98438,0 -0.44271,0 -0.72917,-0.1822919 -0.23437,0.4427089 -0.83333,0.520834 z m 14.84377,-11.4062645 q -0.26042,0 -0.49479,-0.1302085 -0.80729,-0.5468756 -0.39063,-1.4062516 0.20834,-0.468751 0.20834,-0.989585 -1.01563,0 -2.0573,0.02604 -7.23959,0.182292 -14.47918,0.130208 -0.0521,0.390626 0.0781,0.729168 0.44271,0.8333345 -0.28646,1.4322935 -0.83333,0.4427089 -1.43229,-0.2864587 -0.80729,-1.6145858 -0.10417,-3.3072958 0.28646,-0.625001 0.98959,-0.651042 4.0625,0.05208 8.12501,0.02604 -0.026,-0.807292 0.20833,-1.614585 0.4948,-0.807293 1.38021,-0.494792 0.78125,0.46875 0.4948,1.328126 -0.0521,0.390626 -0.026,0.75521 2.52605,-0.02604 5.02605,-0.104167 l 3.04688,-0.05208 q 0.85938,0.05208 1.04167,0.91146 0.23437,1.666669 -0.41667,3.2031288 -0.3125,0.4947923 -0.91146,0.4947923 z m -20.20836,-6.6406331 q -0.70312,-0.02604 -0.96354,-0.677084 -0.26042,-0.937502 0.625,-1.328127 2.86459,-0.989585 3.33334,-4.010422 0.28646,-0.911459 1.22396,-0.781251 0.91146,0.286459 0.80729,1.22396 -0.0781,0.442709 -0.18229,0.859376 h 5.41667 q 0.96355,0.07813 1.04167,1.041668 -0.10417,0.937501 -1.04167,1.015626 h -3.4375 q 0.96354,0.885418 1.69271,2.005211 0.46875,0.833335 -0.26042,1.432294 -0.26042,0.15625 -0.57292,0.182292 -0.54687,0 -0.85937,-0.468751 -1.14584,-1.69271 -2.91667,-2.708337 -0.10417,-0.07813 -0.20834,-0.182292 -1.19791,1.588544 -3.35937,2.343753 -0.15626,0.05208 -0.33855,0.05208 z m 10.46877,0 q -0.70313,-0.02604 -0.96355,-0.677084 -0.26041,-0.937502 0.625,-1.328127 2.86459,-0.989585 3.33334,-4.010422 0.28646,-0.911459 1.22396,-0.781251 0.91146,0.286459 0.78125,1.22396 -0.0781,0.442709 -0.18229,0.859376 h 7.3698 q 0.96354,0.07813 1.04167,1.041668 -0.10417,0.937501 -1.04167,1.015626 h -4.8698 q 0.96355,0.885418 1.71876,2.005211 0.46875,0.833335 -0.28646,1.432294 -0.26042,0.182292 -0.57292,0.182292 -0.54688,-0.02604 -0.85938,-0.468751 -1.11979,-1.69271 -2.89062,-2.708337 -0.26042,-0.208333 -0.39063,-0.442709 h -0.15625 q -1.19792,1.796878 -3.54167,2.60417 -0.15625,0.05208 -0.33854,0.05208 z m -4.21876,8.0989683 v 0.4947923 q 0.13021,-0.078125 0.3125,-0.1041668 4.01042,-0.260417 8.02084,0 h 0.44271 q 0.26042,-0.6770842 0.36459,-1.3802101 -4.58334,-0.7031259 -9.16668,-0.078125 0,0.520834 0.026,1.0677097 z m 10.91147,5.6510488 q -5.39063,-0.9375012 -10.83334,-0.2083336 l 0.0521,2.21354449 q 0.15625,-0.0781251 0.33854,-0.1041668 4.66147,-0.31250039 9.34897,-0.0260417 l 0.59896,0.0260417 q 0.41667,-0.91145948 0.49479,-1.90104409 z" />
    </g>
  </g>
</svg>
