<?xml version="1.0" encoding="UTF-8" standalone="no"?>
<svg
   xmlns:dc="http://purl.org/dc/elements/1.1/"
   xmlns:cc="http://creativecommons.org/ns#"
   xmlns:rdf="http://www.w3.org/1999/02/22-rdf-syntax-ns#"
   xmlns:svg="http://www.w3.org/2000/svg"
   xmlns="http://www.w3.org/2000/svg"
   xmlns:sodipodi="http://sodipodi.sourceforge.net/DTD/sodipodi-0.dtd"
   xmlns:inkscape="http://www.inkscape.org/namespaces/inkscape"
   inkscape:version="1.0 (4035a4f, 2020-05-01)"
   sodipodi:docname="FU-can.svg"
   id="svg19"
   version="1.1"
   overflow="hidden"
   height="24.531576"
   width="76.693268">
  <metadata
     id="metadata23">
    <rdf:RDF>
      <cc:Work
         rdf:about="">
        <dc:format>image/svg+xml</dc:format>
        <dc:type
           rdf:resource="http://purl.org/dc/dcmitype/StillImage" />
        <dc:title></dc:title>
      </cc:Work>
    </rdf:RDF>
  </metadata>
  <sodipodi:namedview
     inkscape:current-layer="svg19"
     inkscape:window-maximized="1"
     inkscape:window-y="25"
     inkscape:window-x="0"
     inkscape:cy="5.0198536"
     inkscape:cx="74.495254"
     inkscape:zoom="5.0392157"
     fit-margin-bottom="0"
     fit-margin-right="0"
     fit-margin-left="0"
     fit-margin-top="0"
     showgrid="false"
     id="namedview21"
     inkscape:window-height="847"
     inkscape:window-width="1440"
     inkscape:pageshadow="2"
     inkscape:pageopacity="0"
     guidetolerance="10"
     gridtolerance="10"
     objecttolerance="10"
     borderopacity="1"
     bordercolor="#666666"
     pagecolor="#ffffff" />
  <defs
     id="defs13">
    <clipPath
       id="clip0">
      <rect
         id="rect10"
         height="86"
         width="153"
         y="86"
         x="990" />
    </clipPath>
  </defs>
  <g
     id="g17"
     transform="translate(-992.00475,-123.98015)"
     clip-path="url(#clip0)">
    <g
       style="font-weight:400;font-size:50px;font-family:'Yu Gothic', 'Yu Gothic_MSFontService', sans-serif;fill:#ffffff"
       id="text15"
       transform="translate(990,146)"
       aria-label="空き缶">
      <path
         id="path27"
         style="font-style:normal;font-variant:normal;font-weight:normal;font-stretch:normal;font-size:26.6667px;font-family:'Yuzu Pop A [M] Bold';-inkscape-font-specification:'Yuzu Pop A [M] Bold, Normal';font-variant-ligatures:normal;font-variant-caps:normal;font-variant-numeric:normal;font-variant-east-asian:normal;fill:#ffffff"
         d="m 21.588569,-4.5572974 h -0.104167 q -3.489588,-0.2343753 -7.005217,-0.3125004 v 5.0781314 q 1.875002,-0.0520834 3.750005,-0.1822919 2.942712,-0.1302085 5.911466,-0.1302085 0.937501,0.0781251 1.015626,1.01562629 Q 25.078157,1.8489607 24.140656,1.9531275 21.223985,1.9791692 18.307315,2.083336 14.739602,2.2395862 11.145847,2.2656279 6.9791755,2.343753 2.8906287,1.6666688 1.9791692,1.3802101 2.0572943,0.44270889 2.3177113,-0.49479229 3.2812541,-0.36458379 7.8385516,0.2083336 12.395849,0.2343753 v -5.1041731 q -3.2291708,0 -6.4843832,0.1562502 -0.9114595,0 -1.1458348,-0.8854178 -0.052083,-0.9635429 0.8854178,-1.1718765 8.0208432,-0.3906255 16.0156452,0.1302085 0.937501,0.1822919 0.937501,1.1197931 -0.130208,0.8854178 -1.015626,0.9635429 z M 3.5677128,-8.3333439 H 3.463546 q -0.9375011,-0.1041668 -1.0156262,-1.0416679 0.1041668,-0.9375012 1.0416679,-1.0156262 1.6406271,0.05208 2.8385453,-1.041668 1.5104186,-1.770836 1.562502,-4.114589 0.078125,-0.937501 1.0156263,-1.041668 0.9635428,0.07813 1.0416679,1.041668 -0.052083,3.177088 -2.161461,5.5729241 -1.7708356,1.6927104 -4.2187554,1.640627 z M 20.651068,-8.671886 q -1.145835,0 -2.29167,-0.1041668 -1.250001,-0.4166671 -1.510418,-1.7187522 -0.260417,-1.302085 -0.338542,-2.473961 -0.07813,-1.197919 -0.02604,-2.473962 0.130208,-0.937501 1.06771,-1.015626 0.937501,0.104167 1.015626,1.06771 -0.104167,2.343753 0.364584,4.60938 1.84896,0.07813 3.697921,-0.07813 0.182292,-0.286458 0.208334,-0.625001 0.234375,-0.937501 1.197918,-0.885417 0.911459,0.234375 0.859376,1.171876 -0.15625,1.171877 -0.989585,1.9791694 -1.53646,0.6770841 -3.255212,0.5468756 z m 2.500003,-4.479172 q -0.208334,0 -0.390626,-0.07813 -0.859376,-0.442709 -0.572917,-1.354169 0.364584,-1.145835 0.3125,-2.343753 l -2.265627,0.05208 q -8.046886,0.260417 -16.0937708,0.182292 -0.2083336,1.015626 0.1041668,2.00521 0.3645838,0.885418 -0.4687506,1.380211 -0.8854177,0.3125 -1.38021,-0.494793 -0.7552093,-2.109377 -0.052083,-4.244797 0.260417,-0.703126 1.0156262,-0.729167 4.5312558,0.05208 9.0625114,0 -0.104167,-1.276044 0.15625,-2.552087 0.390625,-0.859376 1.302085,-0.651042 0.859376,0.390625 0.651042,1.302085 -0.104166,0.937501 -0.02604,1.875002 2.838545,-0.05208 5.67709,-0.130209 1.640627,-0.05208 3.255213,-0.07813 0.911459,0.05208 1.067709,0.937501 0.234376,2.187503 -0.390625,4.296881 -0.312501,0.598959 -0.963543,0.625001 z" />
      <path
         id="path29"
         style="font-style:normal;font-variant:normal;font-weight:normal;font-stretch:normal;font-size:26.6667px;font-family:'Yuzu Pop A [M] Bold';-inkscape-font-specification:'Yuzu Pop A [M] Bold, Normal';font-variant-ligatures:normal;font-variant-caps:normal;font-variant-numeric:normal;font-variant-east-asian:normal;fill:#ffffff"
         d="m 31.979207,-13.411475 q -0.833334,-0.05208 -1.015626,-0.859376 -0.05208,-0.963543 0.885418,-1.171877 1.69271,-0.3125 3.255212,-0.911459 -0.651042,-1.015627 -1.197918,-2.109378 -0.338542,-0.885418 0.46875,-1.38021 0.885418,-0.3125 1.380211,0.468751 0.546875,1.145834 1.223959,2.161461 1.927086,-1.015627 3.645838,-2.500004 0.781251,-0.520834 1.458336,0.156251 0.546875,0.781251 -0.130209,1.432293 -1.770836,1.53646 -3.723963,2.60417 0.989585,1.22396 2.213544,2.239586 0.338543,0.312501 0.677085,0.598959 2.031252,-1.067709 3.697921,-2.656253 0.598959,-0.755209 1.432293,-0.286459 0.729168,0.598959 0.286459,1.432294 -1.614585,1.744794 -3.619796,2.890628 1.848961,1.3541688 3.82813,2.5000035 0.625001,0.4427089 0.442709,1.1718765 -0.260417,0.7291676 -1.041668,0.7291676 -2.13542,-0.052083 -4.218756,0.2864587 -2.057294,0.3385421 -4.088547,1.0677097 -2.031252,0.7291676 -3.151045,2.6302116 -0.260417,0.8854178 0.572917,1.3541684 2.994796,1.2760433 6.27605,0.88541781 3.281254,-0.41666721 5.911466,-2.34375301 0.781251,-0.5729173 1.458335,0.1041668 0.572917,0.7552093 -0.07813,1.4583352 -4.088547,2.9947955 -9.19272,2.8906287 -2.942712,0.1302085 -5.520841,-1.2760433 -2.057294,-1.3802101 -1.38021,-3.723963 1.406252,-2.8125036 4.270839,-3.8802133 2.890629,-1.0937514 5.833341,-1.3802101 -1.093752,-0.6510424 -2.083336,-1.4062518 -0.05208,0.02604 -0.130209,0.05208 -3.411462,1.3281271 -7.005217,1.5625024 -0.651042,0 -1.276043,-0.1041668 -0.937501,-0.2343753 -0.859376,-1.1979181 0.260417,-0.9114595 1.197918,-0.8333345 3.229171,0.104167 6.27605,-0.989585 -1.458336,-1.328126 -2.656254,-2.864586 -1.979169,0.807292 -4.166672,1.197918 z" />
      <path
         id="path31"
         style="font-style:normal;font-variant:normal;font-weight:normal;font-stretch:normal;font-size:26.6667px;font-family:'Yuzu Pop A [M] Bold';-inkscape-font-specification:'Yuzu Pop A [M] Bold, Normal';font-variant-ligatures:normal;font-variant-caps:normal;font-variant-numeric:normal;font-variant-east-asian:normal;fill:#ffffff"
         d="m 66.796959,2.5000032 q -4.114588,0 -8.229177,-0.1822919 -0.937501,-0.1041668 -0.989584,-1.041668 0.02604,-2.26562788 -0.02604,-4.505214 -0.02604,-1.6145854 -0.02604,-3.2291708 0.104167,-0.9375012 1.041668,-1.0156263 0.937502,0.078125 1.041668,1.0156263 0,1.6145854 0.02604,3.2031291 0.02604,1.7708355 0,3.5416711 3.072921,0.15625019 6.119799,0.15625019 0.05208,-2.81250359 -0.02604,-5.62500709 -0.05208,-2.2135445 -0.07813,-4.4270889 -4.661465,-0.026042 -9.348971,0.1562502 -0.937501,0 -1.119793,-0.9114591 0,-0.963543 0.937502,-1.145835 3.619796,-0.208334 7.239592,-0.208334 1.145835,0.02604 2.29167,0.02604 0.02604,-2.187503 0.07813,-4.375006 -2.578129,0.02604 -5.156257,0.182292 -1.406252,1.953128 -3.880213,3.098963 -0.182292,0.07813 -0.390626,0.07813 -0.677084,-0.02604 -0.963542,-0.625001 -0.312501,-0.91146 0.546875,-1.354169 3.932297,-1.901044 4.348964,-6.354174 0.260417,-0.91146 1.197918,-0.833335 0.937501,0.260417 0.833335,1.22396 -0.156251,1.406252 -0.598959,2.60417 7.083342,-0.338542 14.140642,0.364584 0.91146,0.286459 0.807293,1.22396 -0.208333,0.755209 -1.015626,0.807293 -0.104167,0 -0.208334,-0.02604 -3.802088,-0.338542 -7.604176,-0.390626 -0.05208,2.187503 -0.07813,4.401048 l 2.864587,0.05208 q 3.619796,0.07813 7.213551,0.364584 0.911459,0.208333 0.911459,1.145835 -0.15625,0.8593757 -1.015626,0.9114591 H 77.578221 Q 72.65634,-9.53126 67.708417,-9.6093851 q 0.02604,2.1875027 0.07813,4.3750055 0.104167,2.8125035 0.05208,5.65104879 3.046879,-0.0781251 6.1198,-0.31250039 V 0.0520834 q 0.598959,-3.1250039 -0.07813,-6.1979245 -0.208334,-0.9375012 0.677084,-1.302085 0.937501,-0.1822919 1.302085,0.7031259 0.807293,3.3593793 0.208333,6.7708419 0.494793,0.1562502 0.677085,0.75520929 0.07813,0.96354291 -0.833335,1.22395991 -0.390625,0.052083 -0.807292,0.1041668 -0.104167,0.026042 -0.234376,0.026042 h -0.07813 q -3.958338,0.4427089 -7.994802,0.3645838 z" />
    </g>
  </g>
</svg>
