<?xml version="1.0" encoding="UTF-8" standalone="no"?>
<svg
   xmlns:dc="http://purl.org/dc/elements/1.1/"
   xmlns:cc="http://creativecommons.org/ns#"
   xmlns:rdf="http://www.w3.org/1999/02/22-rdf-syntax-ns#"
   xmlns:svg="http://www.w3.org/2000/svg"
   xmlns="http://www.w3.org/2000/svg"
   xmlns:sodipodi="http://sodipodi.sourceforge.net/DTD/sodipodi-0.dtd"
   xmlns:inkscape="http://www.inkscape.org/namespaces/inkscape"
   inkscape:version="1.0 (4035a4f, 2020-05-01)"
   sodipodi:docname="FU-dekinai.svg"
   id="svg19"
   version="1.1"
   overflow="hidden"
   height="24.698496"
   width="260.64792">
  <metadata
     id="metadata23">
    <rdf:RDF>
      <cc:Work
         rdf:about="">
        <dc:format>image/svg+xml</dc:format>
        <dc:type
           rdf:resource="http://purl.org/dc/dcmitype/StillImage" />
        <dc:title></dc:title>
      </cc:Work>
    </rdf:RDF>
  </metadata>
  <sodipodi:namedview
     inkscape:current-layer="svg19"
     inkscape:window-maximized="1"
     inkscape:window-y="25"
     inkscape:window-x="0"
     inkscape:cy="4.9641177"
     inkscape:cx="252.33121"
     inkscape:zoom="1.5117647"
     fit-margin-bottom="0"
     fit-margin-right="0"
     fit-margin-left="0"
     fit-margin-top="0"
     showgrid="false"
     id="namedview21"
     inkscape:window-height="847"
     inkscape:window-width="1440"
     inkscape:pageshadow="2"
     inkscape:pageopacity="0"
     guidetolerance="10"
     gridtolerance="10"
     objecttolerance="10"
     borderopacity="1"
     bordercolor="#666666"
     pagecolor="#ffffff" />
  <defs
     id="defs13">
    <clipPath
       id="clip0">
      <rect
         id="rect10"
         height="86"
         width="510"
         y="86"
         x="990" />
    </clipPath>
  </defs>
  <g
     id="g17"
     transform="translate(-992.66879,-124.03588)"
     clip-path="url(#clip0)">
    <g
       style="font-weight:400;font-size:50px;font-family:'Yu Gothic', 'Yu Gothic_MSFontService', sans-serif;fill:#ffffff"
       id="text15"
       transform="translate(990,146)"
       aria-label="受け入れできないごみ">
      <path
         id="path27"
         style="font-style:normal;font-variant:normal;font-weight:normal;font-stretch:normal;font-size:26.6667px;font-family:'Yuzu Pop A [M] Bold';-inkscape-font-specification:'Yuzu Pop A [M] Bold, Normal';font-variant-ligatures:normal;font-variant-caps:normal;font-variant-numeric:normal;font-variant-east-asian:normal;fill:#ffffff"
         d="M 4.1145885,2.7343785 Q 3.2291707,2.6302117 3.0989622,1.7447939 3.1250039,0.80729269 4.0625051,0.65104249 7.890635,0.46875059 11.458348,-1.041668 11.666681,-1.1197931 11.875015,-1.2239599 11.067722,-1.822919 10.312513,-2.5000032 7.7083431,-4.8177144 6.7708419,-8.2031354 5.9895909,-8.4375107 5.9895909,-9.2968867 6.1458411,-10.234388 7.109384,-10.234388 q 2.968754,0.104167 5.963549,0 3.125004,-0.104167 6.223966,-0.02604 0.677085,0.07813 0.91146,0.7031263 0.598959,2.7604201 -1.145835,5.0781314 -1.406252,1.901044 -3.203129,3.2552124 0.572917,0.31250041 1.171877,0.54687571 2.682295,1.17187648 5.67709,1.30208498 0.937501,0.1302085 0.989585,1.06770971 Q 23.59378,2.60417 22.68232,2.7083368 h -0.02604 Q 19.192733,2.5520866 16.041687,1.1979182 14.921894,0.70312589 13.854184,0.0781251 13.1771,0.46875059 12.473974,0.78125099 8.4895941,2.5260449 4.1927136,2.7343785 Z M 23.802113,-7.7083431 q -0.182291,0 -0.338542,-0.078125 -0.833334,-0.3906255 -0.625,-1.302085 0.390625,-1.5104188 0.3125,-3.0729208 -1.145835,0.05208 -2.265628,0.07813 -8.020843,0.286459 -16.0416869,0.208334 -0.260417,1.328127 0.1041668,2.6302117 0.2864587,0.9114594 -0.5729174,1.3541683 -0.8854178,0.2864587 -1.3281266,-0.5468757 -0.7291676,-2.3697943 -0.052083,-4.7656313 0.2604169,-0.755209 1.0416679,-0.755209 6.5625086,0.104167 13.0989746,-0.07813 -0.15625,-0.15625 -0.260417,-0.390626 -0.234375,-0.911459 0.625001,-1.328126 1.822919,-0.91146 3.489588,-2.13542 l 0.520834,-0.364583 q 0.859376,-0.442709 1.432293,0.3125 0.442709,0.859376 -0.3125,1.432293 -0.234375,0.156251 -0.442709,0.312501 -1.614585,1.197918 -3.385421,2.109378 1.015626,-0.02604 2.031253,-0.07813 1.640627,-0.05208 3.281254,-0.07813 0.911459,0.07813 1.067709,0.963543 0.234376,2.500003 -0.390625,4.8958397 -0.286459,0.6510425 -0.989585,0.6770842 z M 8.2552188,-13.958351 q -0.5468757,0 -0.8593761,-0.442709 -0.7031259,-0.989584 -1.7968773,-1.510418 -0.8333344,-0.416668 -0.5989591,-1.328127 0.052083,-0.130209 0.1302085,-0.234375 l -0.8333344,0.05208 q -0.9375012,-0.07813 -1.041668,-1.015626 0.078125,-0.963543 1.041668,-1.041668 9.2187616,-0.520834 18.2552316,-2.473962 0.937501,-0.104167 1.22396,0.781251 0.15625,0.937501 -0.75521,1.250002 -8.020843,1.744794 -16.171895,2.343753 1.3541684,0.755209 2.2656279,2.031252 0.4427088,0.833335 -0.2864587,1.432294 -0.260417,0.15625 -0.5729174,0.15625 z m 6.2760492,-0.182292 q -0.546875,-0.02604 -0.859376,-0.46875 -0.729167,-0.963543 -1.796877,-1.484377 -0.833334,-0.416668 -0.572917,-1.328127 0.416667,-0.859376 1.328126,-0.598959 1.692711,0.781251 2.76042,2.291669 0.468751,0.833335 -0.286458,1.432294 -0.260417,0.15625 -0.572918,0.15625 z m 2.812504,8.4895942 q 0.859376,-1.1718765 1.015626,-2.5781283 -2.630211,-0.026042 -5.234381,0.052083 -2.083336,0.078125 -4.192714,0.052083 0.9635428,2.5781283 3.098962,4.3750056 0.91146,0.7552092 1.875003,1.4062517 1.953127,-1.3281266 3.437504,-3.3072958 z" />
      <path
         id="path29"
         style="font-style:normal;font-variant:normal;font-weight:normal;font-stretch:normal;font-size:26.6667px;font-family:'Yuzu Pop A [M] Bold';-inkscape-font-specification:'Yuzu Pop A [M] Bold, Normal';font-variant-ligatures:normal;font-variant-caps:normal;font-variant-numeric:normal;font-variant-east-asian:normal;fill:#ffffff"
         d="m 33.359417,0.33854209 h -0.07813 q -0.442709,-0.0520834 -0.729168,-0.41666719 -1.614585,-2.60417 -2.083335,-5.5989654 -0.468751,-2.9947955 -0.390626,-6.0156325 0.104167,-3.046879 1.276043,-5.859383 0.520834,-0.78125 1.38021,-0.416667 0.807293,0.520834 0.416668,1.406252 -1.22396,3.411463 -1.06771,7.0833424 0.182292,3.6458379 1.458335,7.0312588 0.546876,-0.7031258 0.989585,-1.4843768 0.546875,-0.781251 1.406251,-0.3645838 0.781251,0.5468757 0.390626,1.4062517 -0.91146,1.6145854 -2.239586,2.9166704 -0.286459,0.31250039 -0.729168,0.31250039 z M 43.046929,-11.48439 q -2.213544,0 -4.375005,-0.46875 -0.885418,-0.3125 -0.755209,-1.250002 0.3125,-0.911459 1.250001,-0.781251 2.76042,0.598959 5.494799,0.390626 -0.182292,-2.864587 -0.807293,-5.703132 -0.130208,-0.937502 0.755209,-1.250002 0.937502,-0.15625 1.250002,0.729168 0.598959,2.942712 0.833334,5.937507 1.406252,-0.286459 2.812504,-0.807293 0.911459,-0.286458 1.354168,0.546876 0.286459,0.91146 -0.572917,1.354169 -1.718752,0.651042 -3.489588,0.989584 0.02604,1.510419 -0.02604,3.0208372 -0.07813,2.7864619 -0.546875,5.5989655 -0.442709,2.78646181 -1.979169,5.1822982 -0.312501,0.3906255 -0.807293,0.3906255 -0.364584,0 -0.651043,-0.2083336 -0.677084,-0.6770842 -0.15625,-1.45833521 1.640627,-3.02083719 1.927086,-6.45834149 0.208334,-2.9166704 0.15625,-5.8072991 -0.807293,0.05208 -1.666669,0.05208 z" />
      <path
         id="path31"
         style="font-style:normal;font-variant:normal;font-weight:normal;font-stretch:normal;font-size:26.6667px;font-family:'Yuzu Pop A [M] Bold';-inkscape-font-specification:'Yuzu Pop A [M] Bold, Normal';font-variant-ligatures:normal;font-variant-caps:normal;font-variant-numeric:normal;font-variant-east-asian:normal;fill:#ffffff"
         d="M 56.067779,2.4739615 Q 55.62507,2.4479198 55.31257,2.1354194 q -0.598959,-0.7552093 0.07813,-1.45833521 3.932297,-3.93229659 6.640633,-8.80209449 1.406252,-2.4739617 2.473962,-5.1041727 1.06771,-2.656254 1.406252,-5.494799 h -3.593755 q -0.937501,-0.07813 -1.015626,-1.015626 0.07813,-0.937501 1.015626,-1.041668 h 4.635423 q 0.911459,0.07813 1.041668,0.989584 0,1.718752 -0.338543,3.411463 0.05208,0.130208 0.07813,0.286459 0.390625,2.500003 1.432293,4.817714 1.041668,2.3177113 2.395836,4.4531307 1.380211,2.1354194 3.046879,4.0625051 1.666669,1.90104411 3.776047,3.30729589 0.755209,0.57291741 0.338542,1.43229351 -0.312501,0.4687506 -0.885418,0.4947923 -0.286459,0 -0.546876,-0.1562502 -2.317711,-1.53646031 -4.166672,-3.5937546 -1.822919,-2.0833359 -3.307295,-4.4270889 -1.510419,-2.3177113 -2.60417,-4.8697978 -0.442709,-0.963543 -0.75521,-1.979169 -0.963543,2.44792 -2.239586,4.7656308 -1.640627,2.9687538 -3.671879,5.7031322 -1.692711,2.3177113 -3.776047,4.2708388 -0.286459,0.2864587 -0.703126,0.2864587 z" />
      <path
         id="path33"
         style="font-style:normal;font-variant:normal;font-weight:normal;font-stretch:normal;font-size:26.6667px;font-family:'Yuzu Pop A [M] Bold';-inkscape-font-specification:'Yuzu Pop A [M] Bold, Normal';font-variant-ligatures:normal;font-variant-caps:normal;font-variant-numeric:normal;font-variant-east-asian:normal;fill:#ffffff"
         d="m 101.09388,1.041668 q -0.20834,0 -0.39063,-0.0520834 -1.614585,-0.52083399 -1.640627,-2.26562788 -0.07813,-2.2916695 0.02604,-4.5572974 0.05208,-0.8593761 0.05208,-1.7447939 0.02604,-1.6666687 0,-3.3854214 -0.02604,-1.718752 -1.015626,-3.125003 -1.69271,-0.234376 -3.098962,0.859376 -3.67188,2.161461 -6.58855,5.1822978 0.104167,4.2968805 0.416667,8.56771919 0,0.72916761 -0.651042,1.04166801 -0.182292,0.078125 -0.390626,0.078125 -0.494792,-0.026042 -0.807293,-0.3906255 -0.781251,-0.9635429 -1.53646,-1.95312749 -0.520834,-0.78125101 0.15625,-1.43229351 0.442709,-0.3385421 0.963543,-0.1822919 l -0.15625,-3.4114626 -0.520834,0.6770842 q -0.703126,1.1979182 -1.354168,2.421878 -0.494793,0.781251 -1.354169,0.4687506 -0.807292,-0.4687506 -0.520834,-1.3541683 0.598959,-1.4322935 1.510419,-2.7083368 0.338542,-0.5729174 0.677084,-1.1718765 0.755209,-1.2500016 1.458335,-2.5520865 -0.02604,-1.2500018 -0.02604,-2.5260448 -0.989584,0.260417 -2.057294,0.234375 -0.937501,-0.182292 -0.963543,-1.119793 0.182292,-0.937501 1.145835,-0.937501 0.989585,-0.05208 1.901044,-0.364584 0,-2.395836 0.07813,-4.791673 0.104167,-0.911459 1.041668,-1.015626 0.963543,0.104167 1.015627,1.06771 -0.05208,1.875002 -0.07813,3.776046 0.520834,-0.260417 1.06771,-0.494792 0.598959,-0.234375 1.093752,0.208334 0.442708,0.442708 0.286458,1.067709 -0.46875,1.432294 -1.119793,2.812504 2.031253,-1.614586 4.244797,-2.994796 2.44792,-1.822919 5.20834,-0.833334 1.77084,1.53646 1.95313,3.82813 0.18229,2.2916694 0.0781,4.4791721 0.026,0.9114595 -0.0521,1.7968773 -0.10417,2.1614611 -0.026,4.3489638 l 0.0521,0.3645838 q 1.69271,-1.3281267 2.55209,-3.3854209 0.49479,-0.8333344 1.40625,-0.4687506 0.78125,0.4947923 0.46875,1.3802101 -0.72917,1.4583351 -1.77084,2.86458691 -1.01562,1.38021008 -2.73437,1.69271049 z" />
      <path
         id="path35"
         style="font-style:normal;font-variant:normal;font-weight:normal;font-stretch:normal;font-size:26.6667px;font-family:'Yuzu Pop A [M] Bold';-inkscape-font-specification:'Yuzu Pop A [M] Bold, Normal';font-variant-ligatures:normal;font-variant-caps:normal;font-variant-numeric:normal;font-variant-east-asian:normal;fill:#ffffff"
         d="m 126.95329,-11.536473 q -0.41667,0 -0.65105,-0.338542 -0.23437,-0.338542 -0.46875,-0.651042 -0.46875,-0.572918 -0.83333,-1.197919 -0.3125,-0.651042 0.26041,-1.067709 0.65105,-0.286459 1.06771,0.286458 0.31251,0.546876 0.72917,1.041668 0.28646,0.364584 0.54688,0.729168 0.33854,0.625001 -0.20834,1.06771 -0.20833,0.130208 -0.4427,0.130208 z m 2.70833,-0.755209 q -0.46875,-0.02604 -0.70312,-0.442709 -0.3125,-0.833334 -1.01563,-1.38021 -0.52083,-0.442709 -0.23438,-1.06771 0.44271,-0.572917 1.09376,-0.234375 1.04166,0.807293 1.5625,2.005211 0.23437,0.677084 -0.36459,1.041668 -0.15625,0.07813 -0.33854,0.07813 z M 124.4012,0.36458379 q -3.02084,0.0260417 -5.23438,-2.00521089 -3.59376,-4.2968804 -0.88542,-9.2968869 0.96354,-1.822919 2.31771,-3.411462 -4.76563,1.796877 -9.81772,1.69271 -0.9375,-0.130208 -0.96354,-1.093751 0.15625,-0.937502 1.11979,-0.963543 7.6823,-0.260417 14.53127,-3.906255 0.88542,-0.312501 1.38021,0.46875 0.33854,0.859376 -0.44271,1.38021 -4.01042,2.578129 -6.27605,6.770842 -2.05729,3.6458383 0.46875,6.8750091 1.92709,1.6666687 4.34896,1.4062517 2.42188,-0.260417 4.47918,-1.4843768 0.85937,-0.3906255 1.40625,0.3906254 0.36458,0.8854178 -0.41667,1.4062518 -2.78646,1.6406271 -6.01563,1.77083559 z" />
      <path
         id="path37"
         style="font-style:normal;font-variant:normal;font-weight:normal;font-stretch:normal;font-size:26.6667px;font-family:'Yuzu Pop A [M] Bold';-inkscape-font-specification:'Yuzu Pop A [M] Bold, Normal';font-variant-ligatures:normal;font-variant-caps:normal;font-variant-numeric:normal;font-variant-east-asian:normal;fill:#ffffff"
         d="m 138.646,-13.411475 q -0.83333,-0.05208 -1.01562,-0.859376 -0.0521,-0.963543 0.88541,-1.171877 1.69271,-0.3125 3.25522,-0.911459 -0.65105,-1.015627 -1.19792,-2.109378 -0.33854,-0.885418 0.46875,-1.38021 0.88542,-0.3125 1.38021,0.468751 0.54687,1.145834 1.22396,2.161461 1.92708,-1.015627 3.64584,-2.500004 0.78125,-0.520834 1.45833,0.156251 0.54688,0.781251 -0.13021,1.432293 -1.77083,1.53646 -3.72396,2.60417 0.98959,1.22396 2.21355,2.239586 0.33854,0.312501 0.67708,0.598959 2.03125,-1.067709 3.69792,-2.656253 0.59896,-0.755209 1.43229,-0.286459 0.72917,0.598959 0.28646,1.432294 -1.61458,1.744794 -3.61979,2.890628 1.84896,1.3541688 3.82813,2.5000035 0.625,0.4427089 0.44271,1.1718765 -0.26042,0.7291676 -1.04167,0.7291676 -2.13542,-0.052083 -4.21876,0.2864587 -2.05729,0.3385421 -4.08854,1.0677097 -2.03126,0.7291676 -3.15105,2.6302116 -0.26042,0.8854178 0.57292,1.3541684 2.99479,1.2760433 6.27605,0.88541781 3.28125,-0.41666721 5.91146,-2.34375301 0.78125,-0.5729173 1.45834,0.1041668 0.57291,0.7552093 -0.0781,1.4583352 -4.08854,2.9947955 -9.19272,2.8906287 -2.94271,0.1302085 -5.52084,-1.2760433 -2.05729,-1.3802101 -1.38021,-3.723963 1.40625,-2.8125036 4.27084,-3.8802133 2.89063,-1.0937514 5.83334,-1.3802101 -1.09375,-0.6510424 -2.08333,-1.4062518 -0.0521,0.02604 -0.13021,0.05208 -3.41147,1.3281271 -7.00522,1.5625024 -0.65104,0 -1.27604,-0.1041668 -0.9375,-0.2343753 -0.85938,-1.1979181 0.26042,-0.9114595 1.19792,-0.8333345 3.22917,0.104167 6.27605,-0.989585 -1.45834,-1.328126 -2.65626,-2.864586 -1.97916,0.807292 -4.16667,1.197918 z" />
      <path
         id="path39"
         style="font-style:normal;font-variant:normal;font-weight:normal;font-stretch:normal;font-size:26.6667px;font-family:'Yuzu Pop A [M] Bold';-inkscape-font-specification:'Yuzu Pop A [M] Bold, Normal';font-variant-ligatures:normal;font-variant-caps:normal;font-variant-numeric:normal;font-variant-east-asian:normal;fill:#ffffff"
         d="m 163.17729,-14.036476 q -0.75521,-0.02604 -0.98959,-0.755209 -0.18229,-0.937502 0.70313,-1.250002 2.08333,-0.546876 4.11459,-1.302085 0.3125,-1.484377 0.49479,-3.020837 0.18229,-0.937501 1.14583,-0.885418 0.9375,0.208334 0.88542,1.171877 -0.10417,0.937501 -0.26042,1.84896 0.9375,-0.416667 1.87501,-0.859376 0.91146,-0.364584 1.40625,0.468751 0.3125,0.885418 -0.46875,1.38021 -1.64063,0.781251 -3.33334,1.432293 -1.22396,5.078132 -3.88021,9.6354292 -0.3125,0.3906255 -0.83334,0.4166672 -0.33854,0 -0.59896,-0.2083336 -0.72916,-0.6250008 -0.23437,-1.4322935 2.05729,-3.6197963 3.20313,-7.5520933 -1.48438,0.494793 -2.96876,0.885418 -0.13021,0.02604 -0.26041,0.02604 z m 19.06252,4.3229221 q -0.70313,-0.026042 -0.96354,-0.6770841 -1.35417,-3.489588 -4.27084,-5.859383 -0.67709,-0.677084 -0.13021,-1.458335 0.70313,-0.625 1.45833,-0.104167 3.3073,2.708337 4.89584,6.692717 0.23438,0.937501 -0.625,1.328127 -0.18229,0.078125 -0.36458,0.078125 z m -0.80729,10.49480489 q -0.46875,0 -0.75521,-0.3385421 -3.35938,-3.04687889 -7.91668,-3.59375449 -0.10417,1.2500015 -0.83333,2.29166951 -0.96355,1.51041858 -2.70834,1.43229348 -3.04688,-1.06770968 -4.21876,-4.16667189 -0.20833,-0.4427089 0,-0.8854178 0.20834,-0.4427089 0.67709,-0.5468757 2.52604,-0.5989591 5.10417,-0.4427089 -0.10416,-1.5364603 -0.28646,-3.0468789 -0.36458,-2.2916692 -0.26041,-4.5833392 0.18229,-0.937501 1.14583,-0.911459 0.9375,0.182292 0.91146,1.145834 -0.0521,2.057295 0.26042,4.0885472 0.20833,1.7447939 0.3125,3.5156295 5.39063,0.6250008 9.32293,4.32292212 0.57291,0.75520928 -0.0521,1.45833517 -0.3125,0.260417 -0.70312,0.260417 z M 167.50021,-3.2812541 q 0.67708,1.2500015 1.92708,1.7968772 0.54688,-0.052083 0.83334,-0.5729174 0.39062,-0.5989591 0.46875,-1.3281266 -1.61459,-0.1041668 -3.22917,0.1041668 z" />
      <path
         id="path41"
         style="font-style:normal;font-variant:normal;font-weight:normal;font-stretch:normal;font-size:26.6667px;font-family:'Yuzu Pop A [M] Bold';-inkscape-font-specification:'Yuzu Pop A [M] Bold, Normal';font-variant-ligatures:normal;font-variant-caps:normal;font-variant-numeric:normal;font-variant-east-asian:normal;fill:#ffffff"
         d="m 196.48462,1.2500016 q -0.23437,0 -0.44271,-0.1041668 -3.30729,-1.71875219 -4.94792,-4.9739646 -1.61459,-3.2812542 -1.79688,-6.8750092 -0.15625,-3.619796 1.04167,-7.031258 0.41667,-0.833335 1.32813,-0.598959 0.85937,0.416667 0.625,1.328126 -1.4323,4.192714 -0.59896,8.6198027 0.83333,4.4010473 4.42709,7.2135508 0.67708,-1.0937514 1.22396,-2.2656278 0.46875,-0.8333344 1.35417,-0.520834 0.83333,0.4687506 0.52083,1.3541683 -0.67708,1.4843769 -1.5625,2.8906287 -0.15625,0.23437529 -0.28646,0.44270889 -0.3125,0.49479231 -0.88542,0.52083401 z m 12.44793,-6.9270921 q -0.0521,0 -0.10416,-0.026042 -0.9375,-0.1562502 -0.9375,-1.1197931 0.36458,-5.9635487 -3.77605,-10.3385547 -0.57292,-0.755209 0.0521,-1.458335 0.75521,-0.598959 1.45834,0.05208 4.76563,5.026048 4.32292,11.9270986 -0.13021,0.8854178 -1.01563,0.9635429 z" />
      <path
         id="path43"
         style="font-style:normal;font-variant:normal;font-weight:normal;font-stretch:normal;font-size:26.6667px;font-family:'Yuzu Pop A [M] Bold';-inkscape-font-specification:'Yuzu Pop A [M] Bold, Normal';font-variant-ligatures:normal;font-variant-caps:normal;font-variant-numeric:normal;font-variant-east-asian:normal;fill:#ffffff"
         d="m 234.16696,-17.656272 q -0.39062,-0.02604 -0.65104,-0.338542 -0.20833,-0.338542 -0.46875,-0.651043 -0.44271,-0.572917 -0.83333,-1.197918 -0.31251,-0.651043 0.28645,-1.06771 0.65105,-0.3125 1.04167,0.286459 0.33854,0.546876 0.72917,1.041668 0.28646,0.338542 0.54688,0.703126 0.33854,0.625001 -0.20834,1.093751 -0.20833,0.130209 -0.44271,0.130209 z m 2.70834,-0.781251 q -0.46875,-0.02604 -0.67708,-0.442709 -0.33855,-0.807293 -1.01563,-1.354169 -0.57292,-0.442708 -0.23438,-1.067709 0.44271,-0.572918 1.06771,-0.234376 1.04167,0.781251 1.56251,1.97917 0.26041,0.677084 -0.36459,1.041668 -0.15625,0.07813 -0.33854,0.07813 z m -4.97397,5.338548 q -0.83333,-0.05208 -1.04166,-0.859376 -0.0521,-0.937501 0.85937,-1.197918 0.46875,-0.05208 0.91146,-0.208334 -5.10417,-2.291669 -10.67709,-1.875002 -0.96355,0 -1.1198,-0.937501 0,-0.963543 0.9375,-1.119793 3.56772,-0.234376 7.13543,0.46875 3.59375,0.677084 6.45834,2.942712 0.36458,0.338542 0.3125,0.833335 -0.0781,0.494792 -0.49479,0.755209 -1.43229,0.937501 -3.12501,1.171876 -0.0781,0.02604 -0.15625,0.02604 z m -1.79687,15.1041859 q -4.03647,0.026042 -7.70835,-1.56250201 -4.01042,-1.69271049 -5.28646,-5.78125729 -0.13021,-0.9375012 0.75521,-1.2760433 0.9375,-0.1302085 1.25,0.7552093 1.04167,3.1770873 4.16667,4.4270889 5.91147,2.42187808 11.9271,0.44270892 0.88542,-0.31250042 1.40625,0.46875059 0.3125,0.88541778 -0.46875,1.40625178 -2.89063,1.19791821 -6.04167,1.11979311 z" />
      <path
         id="path45"
         style="font-style:normal;font-variant:normal;font-weight:normal;font-stretch:normal;font-size:26.6667px;font-family:'Yuzu Pop A [M] Bold';-inkscape-font-specification:'Yuzu Pop A [M] Bold, Normal';font-variant-ligatures:normal;font-variant-caps:normal;font-variant-numeric:normal;font-variant-east-asian:normal;fill:#ffffff"
         d="m 246.32844,-0.57291739 q -1.53646,-0.1302085 -2.52605,-1.35416841 -1.61458,-1.5104185 -1.04166,-3.5677128 0.85937,-1.4062518 2.42187,-1.7968773 1.56251,-0.4166672 3.12501,-0.4166672 0.65104,-4.1406299 0.59896,-8.3333439 -0.54688,0.02604 -1.1198,0.05208 -1.19791,0.104167 -2.42187,0.104167 -0.93751,-0.104167 -1.01563,-1.041668 0.0781,-0.937501 1.01563,-1.041668 1.17187,-0.02604 2.31771,-0.07813 1.06771,-0.07813 2.16146,-0.07813 0.85937,0.05208 1.04167,0.885418 0.18229,4.791673 -0.4948,9.5573036 3.35938,0.078125 6.51043,0.8593761 0.39062,-1.822919 0.23437,-3.8281297 0.0781,-0.937501 1.01563,-1.015626 0.9375,0.07813 1.04167,1.015626 0.18229,2.2916694 -0.28646,4.4010471 1.95313,0.6510425 3.82813,1.562502 0.80729,0.4947923 0.49479,1.3802101 -0.49479,0.8072926 -1.38021,0.4947922 -1.74479,-0.859376 -3.54167,-1.4322934 -0.75521,1.9791691 -2.13542,3.77604641 -0.3125,0.33854209 -0.75521,0.33854209 -0.41667,0 -0.70312,-0.28645869 -0.67709,-0.70312591 -0.0781,-1.45833521 1.04167,-1.4062517 1.66667,-2.942712 -3.07292,-0.7552093 -6.30209,-0.8072927 -0.41667,2.9947954 -2.6823,4.84375611 -0.46875,0.2083336 -0.98958,0.2083336 z m 1.5625,-5.07813141 q -1.82292,-0.052083 -3.22917,0.9895846 0.026,0.781251 0.65104,1.3541684 0.46875,0.5468756 1.11979,0.6510424 1.19792,-1.2239598 1.45834,-2.9947954 z" />
    </g>
  </g>
</svg>
