<?xml version="1.0" encoding="UTF-8" standalone="no"?>
<svg
   xmlns:dc="http://purl.org/dc/elements/1.1/"
   xmlns:cc="http://creativecommons.org/ns#"
   xmlns:rdf="http://www.w3.org/1999/02/22-rdf-syntax-ns#"
   xmlns:svg="http://www.w3.org/2000/svg"
   xmlns="http://www.w3.org/2000/svg"
   xmlns:sodipodi="http://sodipodi.sourceforge.net/DTD/sodipodi-0.dtd"
   xmlns:inkscape="http://www.inkscape.org/namespaces/inkscape"
   inkscape:version="1.0 (4035a4f, 2020-05-01)"
   sodipodi:docname="FU-kamip.svg"
   id="svg19"
   version="1.1"
   overflow="hidden"
   height="24.206038"
   width="99.47467">
  <metadata
     id="metadata23">
    <rdf:RDF>
      <cc:Work
         rdf:about="">
        <dc:format>image/svg+xml</dc:format>
        <dc:type
           rdf:resource="http://purl.org/dc/dcmitype/StillImage" />
        <dc:title></dc:title>
      </cc:Work>
    </rdf:RDF>
  </metadata>
  <sodipodi:namedview
     inkscape:current-layer="svg19"
     inkscape:window-maximized="1"
     inkscape:window-y="25"
     inkscape:window-x="0"
     inkscape:cy="5.6018668"
     inkscape:cx="100.22916"
     inkscape:zoom="3.7794118"
     fit-margin-bottom="0"
     fit-margin-right="0"
     fit-margin-left="0"
     fit-margin-top="0"
     showgrid="false"
     id="namedview21"
     inkscape:window-height="847"
     inkscape:window-width="1440"
     inkscape:pageshadow="2"
     inkscape:pageopacity="0"
     guidetolerance="10"
     gridtolerance="10"
     objecttolerance="10"
     borderopacity="1"
     bordercolor="#666666"
     pagecolor="#ffffff" />
  <defs
     id="defs13">
    <clipPath
       id="clip0">
      <rect
         id="rect10"
         height="98"
         width="204"
         y="80"
         x="990" />
    </clipPath>
  </defs>
  <g
     id="g17"
     transform="translate(-991.77084,-123.39813)"
     clip-path="url(#clip0)">
    <g
       style="font-weight:400;font-size:50px;font-family:PopRumCute, PopRumCute_MSFontService, sans-serif;fill:#ffffff"
       id="text15"
       transform="translate(990,145)"
       aria-label="紙パック">
      <path
         id="path27"
         style="font-style:normal;font-variant:normal;font-weight:normal;font-stretch:normal;font-size:26.6667px;font-family:'Yuzu Pop A [M] Bold';-inkscape-font-specification:'Yuzu Pop A [M] Bold, Normal';font-variant-ligatures:normal;font-variant-caps:normal;font-variant-numeric:normal;font-variant-east-asian:normal;fill:#ffffff"
         d="m 16.458354,-9.7135539 h -0.3125 v 7.3177175 q 0.520834,-0.2864587 1.041668,-0.6250008 0.885418,-0.4166671 1.432293,0.3906255 0.390626,0.8593761 -0.390625,1.4062518 -0.520834,0.31250041 -1.015627,0.62500081 -1.822919,1.11979308 -3.671879,2.18750279 -0.234376,0.1041668 -0.468751,0.1041668 -0.625001,0 -0.911459,-0.5468757 -0.390626,-0.8593761 0.416667,-1.3802101 0.755209,-0.44270889 1.484377,-0.8854178 0.02604,-1.1718765 0.02604,-2.3437529 0,-7.109384 -0.05208,-14.218768 0.05208,-0.963543 1.015626,-1.041668 h 0.182292 q 4.270839,-0.416667 7.96876,-2.500003 0.807293,-0.494792 1.432294,0.234375 0.494792,0.833335 -0.234375,1.458335 -1.718753,0.989585 -3.541672,1.640627 v 0.598959 q -0.05208,2.734379 0.07813,5.468757 1.510419,-0.02604 2.994796,0 0.963543,0.130209 1.015626,1.06771 -0.104167,0.9375013 -1.041668,0.9895847 -1.406252,-0.026042 -2.812503,0 0.182292,2.0833359 0.546875,4.1666719 0.494793,2.9166703 2.031253,5.4427152 0.02604,-0.80729268 -0.05208,-1.5885437 -0.02604,-0.9635429 0.911459,-1.1197931 0.937501,-0.026042 1.145835,0.9114595 0.651042,2.57812829 -0.91146,4.4010473 -0.286458,0.1562502 -0.625,0.1562502 -0.651043,-0.026042 -1.145835,-0.4687506 -2.343753,-2.57812829 -3.072921,-5.9375075 -0.651042,-2.9427121 -0.885418,-5.9375075 -1.302085,0 -2.578128,0.026042 z M 2.8125036,-6.3541747 q -0.9375012,-0.078125 -1.041668,-1.0156263 0.078125,-0.9635429 1.041668,-1.041668 l 1.2500015,-0.052083 q 0.7552093,-1.38021 1.5364603,-2.7343786 -0.2083336,-0.364584 -0.4427089,-0.729167 -1.0677097,-1.458336 -1.6666688,-3.177088 0.4947923,-1.875002 1.6927105,-3.385421 1.2239599,-1.53646 2.5781283,-2.890628 0.781251,-0.520834 1.4322934,0.182292 0.520834,0.807292 -0.1822918,1.458335 -2.0052109,2.005211 -3.4114627,4.479172 0.4947923,1.041668 1.1718765,2.031253 1.0937514,-1.901044 2.2656279,-3.802089 0.6250007,-0.729167 1.4322932,-0.234375 0.703126,0.598959 0.260417,1.432294 -2.2135442,3.567713 -4.2187551,7.2656338 2.0572943,-0.078125 4.1406301,-0.026042 -0.234375,-0.4947923 -0.520834,-0.9635428 -0.5468756,-0.7812513 0.104167,-1.4583353 0.781251,-0.572917 1.458335,0.104167 1.718752,2.4739613 1.875002,5.5208402 -0.02604,0.9635429 -0.963542,1.0937514 h -0.05208 q -0.911459,-0.078125 -1.041668,-0.9895846 -0.05208,-0.6510425 -0.15625,-1.2500016 H 8.6198026 q -0.026042,2.5000032 -0.026042,5.0000063 -0.026042,1.562502 -0.026042,3.125004 Q 8.4635524,2.5260449 7.5260512,2.60417 6.6145917,2.5000032 6.5104249,1.5885437 V -1.562502 q 0.026042,-2.4479197 0.026042,-4.9218812 -1.0156263,0.026042 -2.0312526,0.078125 z M 2.9427121,2.083336 q -0.1302085,0 -0.2343753,-0.026042 Q 1.7708356,1.7708356 1.9531275,0.80729269 2.8906287,-2.1093777 4.2968804,-4.8437561 4.8177144,-5.6250071 5.7031322,-5.286465 6.4843832,-4.765631 6.1197994,-3.8802132 4.8697978,-1.3541684 3.9583383,1.302085 3.723963,2.0312526 2.9427121,2.083336 Z M 11.692723,-0.83333439 Q 11.015639,-0.85937609 10.72918,-1.4583352 10.26043,-2.5781283 9.3750118,-3.4375043 8.6458443,-4.0364634 9.1145949,-4.8697978 q 0.598959,-0.7031259 1.4322931,-0.260417 1.354169,1.1718765 2.083336,2.8385452 0.312501,0.9114595 -0.520834,1.38021011 -0.208333,0.0781251 -0.416667,0.0781251 z M 16.119812,-11.79689 q 1.38021,0.02604 2.786462,0 -0.15625,-2.708337 -0.104167,-5.442715 -1.328127,0.338542 -2.708337,0.520834 0.02604,2.44792 0.02604,4.921881 z" />
      <path
         id="path29"
         style="font-style:normal;font-variant:normal;font-weight:normal;font-stretch:normal;font-size:26.6667px;font-family:'Yuzu Pop A [M] Bold';-inkscape-font-specification:'Yuzu Pop A [M] Bold, Normal';font-variant-ligatures:normal;font-variant-caps:normal;font-variant-numeric:normal;font-variant-east-asian:normal;fill:#ffffff"
         d="m 29.088578,-1.6927105 q -0.442708,0 -0.755209,-0.3125004 -0.572917,-0.7552093 0.05208,-1.4583351 4.973964,-5.4166736 5.67709,-12.682308 0.05208,-0.937501 1.015626,-1.067709 0.937502,0.05208 1.06771,0.989584 -0.208334,4.010422 -1.927086,7.6823015 -1.69271,3.645838 -4.427089,6.5625083 -0.286458,0.2864587 -0.703126,0.2864587 z M 50.859439,-2.864587 q -0.833334,-0.078125 -1.015626,-0.8854177 -1.640627,-6.9531343 -7.161467,-11.4323063 -0.75521,-0.598959 -0.312501,-1.432293 0.572918,-0.75521 1.406252,-0.312501 6.328133,5.000007 8.098969,12.8645999 0.05208,0.9635429 -0.859377,1.1718764 -0.07813,0 -0.15625,0.026042 z M 48.593811,-14.40106 q -1.458335,-0.07813 -2.343753,-1.22396 -1.354168,-1.953127 0.364584,-3.619796 0.312501,-0.234375 0.651043,-0.02604 2.291669,-0.286458 3.619796,1.614586 0.781251,1.718752 -0.807293,2.786462 -0.677084,0.442708 -1.484377,0.46875 z m -1.588543,-3.750005 q -0.651043,0.963543 0.07813,1.901044 0.989584,1.250002 2.395836,0.520834 0.91146,-0.520834 0.494792,-1.432293 -0.989584,-1.38021 -2.630211,-1.041668 -0.15625,0.07813 -0.338542,0.05208 z" />
      <path
         id="path31"
         style="font-style:normal;font-variant:normal;font-weight:normal;font-stretch:normal;font-size:26.6667px;font-family:'Yuzu Pop A [M] Bold';-inkscape-font-specification:'Yuzu Pop A [M] Bold, Normal';font-variant-ligatures:normal;font-variant-caps:normal;font-variant-numeric:normal;font-variant-east-asian:normal;fill:#ffffff"
         d="m 67.213627,-6.328133 q -0.833335,-0.052083 -1.015627,-0.8854178 -0.260417,-1.2239599 -1.145834,-2.1093776 -0.59896,-0.7552096 0.07813,-1.4583356 0.755209,-0.572917 1.458335,0.07813 1.302085,1.3541689 1.640627,3.1770878 0.05208,0.9375012 -0.859376,1.1718765 -0.07813,0.026042 -0.15625,0.026042 z m -3.723963,0.4427089 q -0.833335,-0.052083 -1.015627,-0.8593761 -0.260417,-1.2239599 -1.145835,-2.1093777 -0.572917,-0.7552092 0.07813,-1.4583351 0.755209,-0.572917 1.458335,0.07813 1.302085,1.3541684 1.640627,3.1770874 0.05208,0.9375012 -0.859376,1.1718765 z m 0.46875,7.0573006 q -0.885418,-0.078125 -1.041668,-0.9635429 0.02604,-0.93750119 0.963543,-1.09375139 2.890629,-0.10416679 4.869798,-2.16146111 1.953127,-2.5781282 1.614585,-5.807299 0.02604,-0.9375011 0.937501,-1.0937513 0.963543,-0.026042 1.119794,0.9375011 0.416667,4.0885469 -2.109378,7.3177176 -2.552087,2.7083368 -6.302091,2.864587 z" />
      <path
         id="path33"
         style="font-style:normal;font-variant:normal;font-weight:normal;font-stretch:normal;font-size:26.6667px;font-family:'Yuzu Pop A [M] Bold';-inkscape-font-specification:'Yuzu Pop A [M] Bold, Normal';font-variant-ligatures:normal;font-variant-caps:normal;font-variant-numeric:normal;font-variant-east-asian:normal;fill:#ffffff"
         d="m 85.390731,-8.3073022 q -0.442709,0 -0.755209,-0.3125004 -0.572918,-0.7552092 0.05208,-1.4583354 3.67188,-3.515629 4.062505,-8.593761 0.234376,-0.911459 1.197918,-0.859376 0.91146,0.234376 0.859377,1.171877 -0.104167,1.093751 -0.312501,2.109377 2.109378,0.07813 4.218755,0 2.760421,-0.104166 5.494801,0.07813 0.70312,0.104166 0.88542,0.807292 0.49479,3.51563 -0.625,6.8750089 -1.093756,3.3333376 -3.281259,6.1197994 -2.161461,2.78646189 -5.572924,3.9583384 -0.130208,0.052083 -0.286459,0.052083 -0.755209,-0.052083 -0.989584,-0.75520931 -0.182292,-0.93750119 0.703126,-1.27604328 4.036463,-1.74479391 6.093758,-5.59896541 2.083335,-3.8802132 2.057294,-8.1770941 -2.213545,-0.05208 -4.453131,0 -2.44792,0.104167 -4.869798,-0.05208 -1.171876,3.151046 -3.776046,5.6250071 -0.286459,0.2864587 -0.703126,0.2864587 z" />
    </g>
  </g>
</svg>
