<?xml version="1.0" encoding="UTF-8" standalone="no"?>
<svg
   xmlns:dc="http://purl.org/dc/elements/1.1/"
   xmlns:cc="http://creativecommons.org/ns#"
   xmlns:rdf="http://www.w3.org/1999/02/22-rdf-syntax-ns#"
   xmlns:svg="http://www.w3.org/2000/svg"
   xmlns="http://www.w3.org/2000/svg"
   xmlns:sodipodi="http://sodipodi.sourceforge.net/DTD/sodipodi-0.dtd"
   xmlns:inkscape="http://www.inkscape.org/namespaces/inkscape"
   inkscape:version="1.0 (4035a4f, 2020-05-01)"
   sodipodi:docname="FU-moyasanai.svg"
   id="svg19"
   version="1.1"
   overflow="hidden"
   height="24.427114"
   width="182.09265">
  <metadata
     id="metadata23">
    <rdf:RDF>
      <cc:Work
         rdf:about="">
        <dc:format>image/svg+xml</dc:format>
        <dc:type
           rdf:resource="http://purl.org/dc/dcmitype/StillImage" />
        <dc:title></dc:title>
      </cc:Work>
    </rdf:RDF>
  </metadata>
  <sodipodi:namedview
     inkscape:current-layer="svg19"
     inkscape:window-maximized="1"
     inkscape:window-y="25"
     inkscape:window-x="0"
     inkscape:cy="4.8229442"
     inkscape:cx="177.27604"
     inkscape:zoom="2.1596639"
     fit-margin-bottom="0"
     fit-margin-right="0"
     fit-margin-left="0"
     fit-margin-top="0"
     showgrid="false"
     id="namedview21"
     inkscape:window-height="847"
     inkscape:window-width="1440"
     inkscape:pageshadow="2"
     inkscape:pageopacity="0"
     guidetolerance="10"
     gridtolerance="10"
     objecttolerance="10"
     borderopacity="1"
     bordercolor="#666666"
     pagecolor="#ffffff" />
  <defs
     id="defs13">
    <clipPath
       id="clip0">
      <rect
         id="rect10"
         height="86"
         width="357"
         y="86"
         x="990" />
    </clipPath>
  </defs>
  <g
     id="g17"
     transform="translate(-991.22396,-124.17706)"
     clip-path="url(#clip0)">
    <g
       style="font-weight:400;font-size:50px;font-family:'Yu Gothic', 'Yu Gothic_MSFontService', sans-serif;fill:#ffffff"
       id="text15"
       transform="translate(990,146)"
       aria-label="燃やさないごみ">
      <path
         id="path27"
         style="font-style:normal;font-variant:normal;font-weight:normal;font-stretch:normal;font-size:26.6667px;font-family:'Yuzu Pop A [M] Bold';-inkscape-font-specification:'Yuzu Pop A [M] Bold, Normal';font-variant-ligatures:normal;font-variant-caps:normal;font-variant-numeric:normal;font-variant-east-asian:normal;fill:#ffffff"
         d="M 2.60417,2.4739615 Q 2.2916696,2.4479198 2.0052109,2.2916696 1.2760433,1.6666688 1.7708356,0.83333439 2.6562534,-0.78125099 3.0208372,-2.5781283 q 0.3906254,-1.7968772 0.6510424,-3.5937545 0.2864587,-2.1875028 0.4427089,-4.3750052 -0.1562502,0.364583 -0.6510425,0.5729171 -0.1562502,0.052083 -0.3125004,0.052083 -0.7291675,-0.026042 -0.9895845,-0.7291675 -0.7291676,-2.91667 -0.9375012,-5.911466 0.078125,-0.963543 1.0156263,-1.093751 0.9375011,0.05208 1.0677096,1.015626 0.1822919,2.734378 0.8333344,5.390632 v 0.05208 q 0.052083,-0.703126 0.078125,-1.38021 0.1822919,-4.062505 0.1041668,-8.151052 0.078125,-0.937501 1.0156263,-1.041668 h 0.026042 q 0.9375012,0.07813 1.041668,1.015626 0.052083,2.708337 0,5.416674 0.520834,-1.06771 0.9635429,-2.161461 0.3906255,-0.885418 1.3281267,-0.625001 0.8333343,0.390626 0.6250007,1.302085 -0.9375011,2.421878 -2.3177112,4.635423 -0.2864587,0.416667 -0.7552093,0.46875 -0.1041668,1.8750026 -0.3125004,3.7500049 0.2083336,0.1041668 0.3906255,0.3125004 2.0312526,2.6822951 2.5781283,5.9895909 0.1041668,0.93750121 -0.781251,1.22395991 -0.1041668,0.0260417 -0.2343753,0.0260417 Q 7.109384,-0.46875059 6.9010504,-1.2500016 6.5625083,-3.2812541 5.5729237,-5.0520897 5.3385484,-3.5156294 5.0000063,-2.0052109 4.5312557,0.1302085 3.4375043,2.0312526 3.1250039,2.4479198 2.60417,2.4739615 Z m 6.4583415,0.026042 q -0.1822919,0 -0.3645838,-0.078125 -0.8333344,-0.3906255 -0.6250008,-1.302085 0.6510425,-2.1354194 1.901044,-3.9583384 0.6510421,-0.7031258 1.4583351,-0.2083336 0.703126,0.6250008 0.208334,1.4322935 -1.06771,1.5885437 -1.614586,3.4114627 Q 9.7656373,2.4479198 9.0625115,2.5000032 Z M 14.86981,2.60417 h -0.05208 q -0.937501,-0.1302085 -0.989585,-1.0677097 0,-1.7968773 -0.390625,-3.5416712 -0.130209,-0.9375012 0.755209,-1.2239598 0.963543,-0.1302085 1.250002,0.7812509 0.46875,2.00521091 0.442709,4.0625052 Q 15.78127,2.5260449 14.86981,2.60417 Z m 4.973965,0 q -0.755209,-0.052083 -0.989585,-0.781251 -0.442708,-1.8750024 -1.53646,-3.4635461 -0.494792,-0.8072927 0.234376,-1.4322934 0.833334,-0.4687506 1.458335,0.2604169 1.302085,1.87500242 1.84896,4.1145886 0.130209,0.9375012 -0.755209,1.2760433 -0.130208,0.026042 -0.260417,0.026042 z m 4.583339,0 q -0.703126,-0.052083 -0.989584,-0.7031259 -0.546876,-1.9270858 -1.744794,-3.5416712 -0.442709,-0.8333344 0.260417,-1.4322934 0.833334,-0.4687506 1.432293,0.2604169 1.354169,1.84896072 2.031253,4.0625052 0.208333,0.9114595 -0.651043,1.302085 -0.15625,0.052083 -0.338542,0.052083 z m -9.19272,-6.6406334 q -0.416667,0 -0.729167,-0.2864587 -0.625001,-0.7031259 -0.02604,-1.4583352 0.338542,-0.3125004 0.651042,-0.6510425 1.927086,-1.7187522 2.864587,-4.0885472 0.729168,-1.927085 1.015627,-3.98438 -0.833335,0.07813 -1.666669,0.182292 -0.807293,0.05208 -1.093751,-0.598959 -0.59896,1.822919 -1.406252,3.541671 0.07813,0.364584 0.130208,0.75521 0,0.9375008 -0.937501,1.1197927 h -0.130208 q -0.572918,1.0677096 -1.22396,2.1093776 0.07813,0.8072927 0.104166,1.6145854 -0.07813,0.9375012 -1.015626,1.041668 h -0.02604 q -0.625001,-0.052083 -0.859377,-0.4687506 -0.494792,0.4687506 -1.0677093,0.8593761 -0.2343753,0.1562502 -0.520834,0.1562502 -0.598959,-0.026042 -0.8854177,-0.5468757 -0.3906255,-0.8593761 0.3906255,-1.4062518 1.0156262,-0.7552093 1.7187525,-1.7708356 -0.260417,-2.1875023 -0.8333348,-4.3229223 -0.1041668,0.02604 -0.2083336,0.02604 -0.3645837,0 -0.6250007,-0.234375 -0.7031259,-0.625001 -0.2083336,-1.432294 2.3437527,-3.255212 3.5156297,-7.109384 0.390625,-0.859376 1.328126,-0.651042 0.859376,0.416667 0.625001,1.328126 -0.208333,0.651043 -0.442709,1.302085 0.208334,0 0.416667,-0.02604 1.093752,-0.07813 2.187503,0.07813 0.859376,0.3125 0.75521,1.197918 -0.182292,0.755209 -0.390626,1.510418 0.15625,-0.07813 0.338542,-0.130208 1.119793,-0.130209 2.265628,-0.208334 0.208334,-2.109377 0.208334,-4.218755 0.104166,-0.937501 1.041668,-1.015626 0.859376,0.07813 1.015626,0.859376 0.104167,-0.234375 0.364584,-0.442709 0.833334,-0.442709 1.432293,0.3125 0.937501,1.302085 1.328127,2.864587 0.07813,0.937501 -0.807293,1.22396 -0.104167,0 -0.208333,0.02604 -0.807293,-0.05208 -1.015627,-0.833335 -0.338542,-1.171876 -1.015626,-2.161461 -0.02604,-0.05208 -0.05208,-0.130208 -0.02604,1.718752 -0.182292,3.411463 1.770835,0 3.463546,0.520834 0.807292,0.494792 0.46875,1.38021 -0.286458,0.546875 -0.911459,0.572917 -0.234375,0 -0.468751,-0.07813 -1.22396,-0.286459 -2.44792,-0.3125 0.312501,2.343753 1.171877,4.583339 0.885418,2.3177109 2.44792,4.218755 0.625,0.7031259 0.02604,1.4583352 -0.3125,0.3125004 -0.729167,0.3125004 -0.416667,0 -0.729168,-0.2864587 -1.276043,-1.4062518 -2.083336,-3.0989623 -0.755209,-1.562502 -1.302085,-3.2031286 -0.182292,0.546875 -0.390625,1.0677093 -1.119793,2.682295 -3.281254,4.6093808 -0.312501,0.2864587 -0.625001,0.5989591 -0.286459,0.3125004 -0.729168,0.3125004 z M 14.739602,-16.979188 q -0.286459,0 -0.572917,0.02604 -0.677085,0.05208 -1.328127,0 -0.15625,0.338542 -0.312501,0.651042 0.02604,0 0.07813,0.02604 0.859376,0.625001 1.276043,1.614585 0.02604,0.07813 0.05208,0.130209 0.442709,-1.197919 0.807293,-2.44792 z m -3.098962,2.526045 q -0.05208,-0.02604 -0.07813,-0.07813 -0.182292,0.3125 -0.390626,0.598959 0.15625,0.15625 0.260417,0.364584 0.442709,1.432293 0.755209,2.91667 0.260417,-0.494792 0.494793,-0.989585 -0.338542,-1.484377 -1.041668,-2.812503 z" />
      <path
         id="path29"
         style="font-style:normal;font-variant:normal;font-weight:normal;font-stretch:normal;font-size:26.6667px;font-family:'Yuzu Pop A [M] Bold';-inkscape-font-specification:'Yuzu Pop A [M] Bold, Normal';font-variant-ligatures:normal;font-variant-caps:normal;font-variant-numeric:normal;font-variant-east-asian:normal;fill:#ffffff"
         d="m 44.505265,-5.3385484 q -0.651043,-0.026042 -0.963543,-0.5989591 -0.312501,-0.9114595 0.520834,-1.3802101 1.588543,-0.9635429 2.708336,-2.5260448 1.119794,-1.5625016 1.119794,-3.4635456 -0.468751,-1.06771 -1.588544,-1.276044 -1.093752,-0.234375 -2.13542,-0.182292 -0.625,0.130209 -1.250001,0.286459 0.260417,1.406252 0.286459,2.864587 -0.130209,0.885418 -1.041668,0.963543 h -0.05208 q -0.937501,-0.130209 -0.963543,-1.093752 -0.05208,-1.041667 -0.208333,-2.031252 -0.729168,0.3125 -1.432294,0.677084 -1.927086,1.093751 -3.776046,2.265628 2.135419,6.0156326 6.875009,10.8073053 0.651042,0.70312589 0.07813,1.4583352 -0.312501,0.3125004 -0.781251,0.3385421 -0.390626,-0.026042 -0.677085,-0.2864587 -4.088546,-3.7760465 -6.302091,-8.8541779 -0.494792,-1.1458348 -0.911459,-2.3177112 -1.432294,1.0156262 -2.786462,2.1354193 -0.755209,0.5729174 -1.458335,-0.078125 -0.546876,-0.7552093 0.07813,-1.4583352 1.69271,-1.4062518 3.489587,-2.6302118 -0.885417,-3.020837 -1.223959,-6.197924 -0.05208,-0.963543 0.885417,-1.171877 0.963543,-0.02604 1.145835,0.91146 0.260417,2.76042 0.937501,5.312506 1.901044,-1.197918 3.906255,-2.291669 0.729168,-0.390626 1.484377,-0.703126 -0.364584,-1.197918 -0.911459,-2.369795 -0.312501,-0.885417 0.494792,-1.354168 0.885418,-0.3125 1.38021,0.494792 0.598959,1.276043 0.989585,2.578128 0.859376,-0.208333 1.718752,-0.338542 1.770835,-0.130208 3.489588,0.546876 1.744793,0.651043 2.265627,2.526045 0.208334,2.656253 -1.276043,4.8697977 -1.458335,2.1875028 -3.697921,3.4635461 -0.182292,0.1041668 -0.416667,0.1041668 z" />
      <path
         id="path31"
         style="font-style:normal;font-variant:normal;font-weight:normal;font-stretch:normal;font-size:26.6667px;font-family:'Yuzu Pop A [M] Bold';-inkscape-font-specification:'Yuzu Pop A [M] Bold, Normal';font-variant-ligatures:normal;font-variant-caps:normal;font-variant-numeric:normal;font-variant-east-asian:normal;fill:#ffffff"
         d="m 60.83341,-13.619809 q -0.963543,-0.07813 -1.041668,-1.041668 0.104167,-0.937501 1.041668,-1.015626 2.161461,0.07813 4.14063,-0.390626 -1.406251,-1.458335 -2.682295,-3.046878 -0.442709,-0.833335 0.286459,-1.432294 0.833334,-0.442709 1.432294,0.286459 1.510418,1.822919 3.177087,3.489587 1.927086,-0.807292 3.645838,-2.161461 0.755209,-0.572917 1.458335,0.05208 0.572917,0.729167 -0.02604,1.458335 -1.640627,1.328127 -3.437504,2.187503 1.53646,1.406252 3.229171,2.656253 1.406251,1.119793 2.76042,2.343753 0.546876,0.5468758 0.234375,1.2500016 -0.416667,0.6510425 -1.171876,0.520834 -2.369795,-0.5989591 -4.791673,-0.8072926 -2.395836,-0.2083336 -4.843756,0.3125003 -2.421878,0.4947923 -3.82813,2.6562534 -1.015626,2.4739615 1.041668,4.2187553 2.812504,1.7968773 6.067716,1.53646031 3.255212,-0.2864587 6.197924,-1.53646031 0.885418,-0.260417 1.354169,0.5468757 0.286459,0.91145951 -0.546876,1.3541684 -3.750005,1.6145854 -7.838551,1.6927105 -3.593755,0.1041668 -6.510425,-1.95312749 -3.229171,-2.81250351 -1.640627,-6.74480021 1.875002,-3.0208369 5.234381,-3.7760469 3.385421,-0.781251 6.692717,-0.260417 -2.005211,-1.484376 -3.802088,-3.151045 -2.734379,0.859376 -5.833341,0.755209 z" />
      <path
         id="path33"
         style="font-style:normal;font-variant:normal;font-weight:normal;font-stretch:normal;font-size:26.6667px;font-family:'Yuzu Pop A [M] Bold';-inkscape-font-specification:'Yuzu Pop A [M] Bold, Normal';font-variant-ligatures:normal;font-variant-caps:normal;font-variant-numeric:normal;font-variant-east-asian:normal;fill:#ffffff"
         d="m 83.177187,-14.036476 q -0.75521,-0.02604 -0.989585,-0.755209 -0.182292,-0.937502 0.703126,-1.250002 2.083336,-0.546876 4.114588,-1.302085 0.312501,-1.484377 0.494793,-3.020837 0.182292,-0.937501 1.145834,-0.885418 0.937502,0.208334 0.885418,1.171877 -0.104167,0.937501 -0.260417,1.84896 0.937501,-0.416667 1.875003,-0.859376 0.911459,-0.364584 1.406251,0.468751 0.312501,0.885418 -0.46875,1.38021 -1.640627,0.781251 -3.333338,1.432293 -1.22396,5.078132 -3.880213,9.6354292 -0.3125,0.3906255 -0.833334,0.4166672 -0.338542,0 -0.598959,-0.2083336 -0.729168,-0.6250008 -0.234376,-1.4322935 2.057294,-3.6197963 3.203129,-7.5520933 -1.484377,0.494793 -2.968753,0.885418 -0.130209,0.02604 -0.260417,0.02604 z m 19.062523,4.3229221 q -0.70313,-0.026042 -0.96354,-0.6770841 -1.354171,-3.489588 -4.270841,-5.859383 -0.677084,-0.677084 -0.130208,-1.458335 0.703125,-0.625 1.458335,-0.104167 3.307294,2.708337 4.895844,6.692717 0.23437,0.937501 -0.62501,1.328127 -0.18229,0.078125 -0.36458,0.078125 z m -0.80729,10.49480489 q -0.46875,0 -0.75521,-0.3385421 -3.359381,-3.04687889 -7.916678,-3.59375449 -0.104167,1.2500015 -0.833334,2.29166951 -0.963543,1.51041858 -2.708337,1.43229348 -3.046879,-1.06770968 -4.218755,-4.16667189 -0.208334,-0.4427089 0,-0.8854178 0.208333,-0.4427089 0.677084,-0.5468757 2.526045,-0.5989591 5.104173,-0.4427089 -0.104167,-1.5364603 -0.286459,-3.0468789 -0.364584,-2.2916692 -0.260417,-4.5833392 0.182292,-0.937501 1.145835,-0.911459 0.937501,0.182292 0.911459,1.145834 -0.05208,2.057295 0.260417,4.0885472 0.208334,1.7447939 0.312501,3.5156295 5.390632,0.6250008 9.322931,4.32292212 0.57291,0.75520928 -0.0521,1.45833517 -0.3125,0.260417 -0.70312,0.260417 z M 87.500109,-3.2812541 q 0.677084,1.2500015 1.927085,1.7968772 0.546876,-0.052083 0.833335,-0.5729174 0.390625,-0.5989591 0.46875,-1.3281266 -1.614585,-0.1041668 -3.22917,0.1041668 z" />
      <path
         id="path35"
         style="font-style:normal;font-variant:normal;font-weight:normal;font-stretch:normal;font-size:26.6667px;font-family:'Yuzu Pop A [M] Bold';-inkscape-font-specification:'Yuzu Pop A [M] Bold, Normal';font-variant-ligatures:normal;font-variant-caps:normal;font-variant-numeric:normal;font-variant-east-asian:normal;fill:#ffffff"
         d="m 116.48452,1.2500016 q -0.23437,0 -0.44271,-0.1041668 -3.30729,-1.71875219 -4.94792,-4.9739646 -1.61458,-3.2812542 -1.79688,-6.8750092 -0.15625,-3.619796 1.04167,-7.031258 0.41667,-0.833335 1.32813,-0.598959 0.85937,0.416667 0.625,1.328126 -1.43229,4.192714 -0.59896,8.6198027 0.83333,4.4010473 4.42709,7.2135508 0.67708,-1.0937514 1.22396,-2.2656278 0.46875,-0.8333344 1.35417,-0.520834 0.83333,0.4687506 0.52083,1.3541683 -0.67708,1.4843769 -1.5625,2.8906287 -0.15625,0.23437529 -0.28646,0.44270889 -0.3125,0.49479231 -0.88542,0.52083401 z m 12.44793,-6.9270921 q -0.0521,0 -0.10416,-0.026042 -0.9375,-0.1562502 -0.9375,-1.1197931 0.36458,-5.9635487 -3.77605,-10.3385547 -0.57292,-0.755209 0.0521,-1.458335 0.75521,-0.598959 1.45834,0.05208 4.76563,5.026048 4.32292,11.9270986 -0.13021,0.8854178 -1.01563,0.9635429 z" />
      <path
         id="path37"
         style="font-style:normal;font-variant:normal;font-weight:normal;font-stretch:normal;font-size:26.6667px;font-family:'Yuzu Pop A [M] Bold';-inkscape-font-specification:'Yuzu Pop A [M] Bold, Normal';font-variant-ligatures:normal;font-variant-caps:normal;font-variant-numeric:normal;font-variant-east-asian:normal;fill:#ffffff"
         d="m 154.16686,-17.656272 q -0.39063,-0.02604 -0.65105,-0.338542 -0.20833,-0.338542 -0.46875,-0.651043 -0.44271,-0.572917 -0.83333,-1.197918 -0.3125,-0.651043 0.28646,-1.06771 0.65104,-0.3125 1.04166,0.286459 0.33855,0.546876 0.72917,1.041668 0.28646,0.338542 0.54688,0.703126 0.33854,0.625001 -0.20834,1.093751 -0.20833,0.130209 -0.4427,0.130209 z m 2.70833,-0.781251 q -0.46875,-0.02604 -0.67708,-0.442709 -0.33854,-0.807293 -1.01563,-1.354169 -0.57292,-0.442708 -0.23437,-1.067709 0.44271,-0.572918 1.06771,-0.234376 1.04166,0.781251 1.5625,1.97917 0.26042,0.677084 -0.36459,1.041668 -0.15625,0.07813 -0.33854,0.07813 z m -4.97396,5.338548 q -0.83334,-0.05208 -1.04167,-0.859376 -0.0521,-0.937501 0.85938,-1.197918 0.46875,-0.05208 0.91146,-0.208334 -5.10418,-2.291669 -10.6771,-1.875002 -0.96354,0 -1.11979,-0.937501 0,-0.963543 0.9375,-1.119793 3.56771,-0.234376 7.13542,0.46875 3.59376,0.677084 6.45834,2.942712 0.36459,0.338542 0.3125,0.833335 -0.0781,0.494792 -0.49479,0.755209 -1.43229,0.937501 -3.125,1.171876 -0.0781,0.02604 -0.15625,0.02604 z m -1.79688,15.1041859 q -4.03646,0.026042 -7.70834,-1.56250201 -4.01042,-1.69271049 -5.28647,-5.78125729 -0.13021,-0.9375012 0.75521,-1.2760433 0.9375,-0.1302085 1.25,0.7552093 1.04167,3.1770873 4.16668,4.4270889 5.91146,2.42187808 11.92709,0.44270892 0.88542,-0.31250042 1.40626,0.46875059 0.3125,0.88541778 -0.46876,1.40625178 -2.89062,1.19791821 -6.04167,1.11979311 z" />
      <path
         id="path39"
         style="font-style:normal;font-variant:normal;font-weight:normal;font-stretch:normal;font-size:26.6667px;font-family:'Yuzu Pop A [M] Bold';-inkscape-font-specification:'Yuzu Pop A [M] Bold, Normal';font-variant-ligatures:normal;font-variant-caps:normal;font-variant-numeric:normal;font-variant-east-asian:normal;fill:#ffffff"
         d="m 166.32833,-0.57291739 q -1.53646,-0.1302085 -2.52604,-1.35416841 -1.61459,-1.5104185 -1.04167,-3.5677128 0.85937,-1.4062518 2.42188,-1.7968773 1.5625,-0.4166672 3.125,-0.4166672 0.65104,-4.1406299 0.59896,-8.3333439 -0.54688,0.02604 -1.11979,0.05208 -1.19792,0.104167 -2.42188,0.104167 -0.9375,-0.104167 -1.01563,-1.041668 0.0781,-0.937501 1.01563,-1.041668 1.17187,-0.02604 2.31771,-0.07813 1.06771,-0.07813 2.16146,-0.07813 0.85938,0.05208 1.04167,0.885418 0.18229,4.791673 -0.49479,9.5573036 3.35938,0.078125 6.51042,0.8593761 0.39063,-1.822919 0.23438,-3.8281297 0.0781,-0.937501 1.01562,-1.015626 0.9375,0.07813 1.04167,1.015626 0.18229,2.2916694 -0.28646,4.4010471 1.95313,0.6510425 3.82813,1.562502 0.80729,0.4947923 0.49479,1.3802101 -0.49479,0.8072926 -1.38021,0.4947922 -1.74479,-0.859376 -3.54167,-1.4322934 -0.75521,1.9791691 -2.13542,3.77604641 -0.3125,0.33854209 -0.75521,0.33854209 -0.41666,0 -0.70312,-0.28645869 -0.67709,-0.70312591 -0.0781,-1.45833521 1.04167,-1.4062517 1.66667,-2.942712 -3.07292,-0.7552093 -6.30209,-0.8072927 -0.41667,2.9947954 -2.68229,4.84375611 -0.46875,0.2083336 -0.98959,0.2083336 z m 1.5625,-5.07813141 q -1.82292,-0.052083 -3.22917,0.9895846 0.026,0.781251 0.65105,1.3541684 0.46875,0.5468756 1.11979,0.6510424 1.19792,-1.2239598 1.45833,-2.9947954 z" />
    </g>
  </g>
</svg>
