<?xml version="1.0" encoding="UTF-8" standalone="no"?>
<svg
   xmlns:dc="http://purl.org/dc/elements/1.1/"
   xmlns:cc="http://creativecommons.org/ns#"
   xmlns:rdf="http://www.w3.org/1999/02/22-rdf-syntax-ns#"
   xmlns:svg="http://www.w3.org/2000/svg"
   xmlns="http://www.w3.org/2000/svg"
   xmlns:sodipodi="http://sodipodi.sourceforge.net/DTD/sodipodi-0.dtd"
   xmlns:inkscape="http://www.inkscape.org/namespaces/inkscape"
   inkscape:version="1.0 (4035a4f, 2020-05-01)"
   sodipodi:docname="FU-plu.svg"
   id="svg19"
   version="1.1"
   overflow="hidden"
   height="25.533886"
   width="259.98593">
  <metadata
     id="metadata23">
    <rdf:RDF>
      <cc:Work
         rdf:about="">
        <dc:format>image/svg+xml</dc:format>
        <dc:type
           rdf:resource="http://purl.org/dc/dcmitype/StillImage" />
        <dc:title></dc:title>
      </cc:Work>
    </rdf:RDF>
  </metadata>
  <sodipodi:namedview
     inkscape:current-layer="svg19"
     inkscape:window-maximized="1"
     inkscape:window-y="25"
     inkscape:window-x="0"
     inkscape:cy="5.6692995"
     inkscape:cx="259.03206"
     inkscape:zoom="1.5117647"
     fit-margin-bottom="0"
     fit-margin-right="0"
     fit-margin-left="0"
     fit-margin-top="0"
     showgrid="false"
     id="namedview21"
     inkscape:window-height="847"
     inkscape:window-width="1440"
     inkscape:pageshadow="2"
     inkscape:pageopacity="0"
     guidetolerance="10"
     gridtolerance="10"
     objecttolerance="10"
     borderopacity="1"
     bordercolor="#666666"
     pagecolor="#ffffff" />
  <defs
     id="defs13">
    <clipPath
       id="clip0">
      <rect
         id="rect10"
         height="86"
         width="510"
         y="86"
         x="990" />
    </clipPath>
  </defs>
  <g
     style="fill:#000000"
     id="g17"
     transform="translate(-991.25977,-123.3307)"
     clip-path="url(#clip0)">
    <g
       style="font-weight:400;font-size:50px;font-family:'Yu Gothic', 'Yu Gothic_MSFontService', sans-serif;fill:#000000"
       id="text15"
       transform="translate(990,146)"
       aria-label="容器包装プラスチック">
      <path
         id="path27"
         style="font-style:normal;font-variant:normal;font-weight:normal;font-stretch:normal;font-size:26.6667px;font-family:'Yuzu Pop A [M] Bold';-inkscape-font-specification:'Yuzu Pop A [M] Bold, Normal';font-variant-ligatures:normal;font-variant-caps:normal;font-variant-numeric:normal;font-variant-east-asian:normal;fill:#ffffff"
         d="M 2.2656279,-2.7604202 Q 1.4843769,-2.8125036 1.2760433,-3.5677128 1.1458348,-4.505214 2.0572943,-4.8177144 5.026048,-5.8854241 7.5781346,-7.7343848 10.26043,-9.4531369 12.317724,-11.822932 q 0.02604,-0.05208 0.07813,-0.07813 0.05208,-0.07813 0.104167,-0.130208 l 0.15625,-0.104167 q 0.182292,-0.130208 0.416667,-0.130208 0.286459,-0.05208 0.572918,0.104166 l 0.104166,0.05208 q 0.05208,0.02604 0.07813,0.07813 0.07813,0.05208 0.130209,0.104167 2.29167,2.395836 4.973965,4.3750051 2.369794,1.9531275 5.182298,3.125004 0.885418,0.3125004 0.755209,1.2500016 -0.234375,0.7291675 -1.015626,0.7812509 -0.130209,0 -0.234375,-0.026042 -1.692711,-0.5729174 -3.177088,-1.5364602 -1.484377,-0.9635429 -2.890628,-2.0312526 -2.29167,-1.7447939 -4.348964,-3.7500047 -1.953128,2.1093776 -4.4270892,3.6979213 -0.3906255,0.2864587 -0.781251,0.5468757 0.3385421,0.026042 0.5468757,0.1822919 2.5781285,-0.6510425 5.3125065,-0.5729174 1.406252,0.026042 2.838545,0.2864587 1.432294,0.2343753 2.500004,1.2239599 0.416667,0.5989591 0.442708,1.3281266 0.02604,2.29166961 -0.572917,4.5312558 -0.104167,0.3125004 -0.3125,0.4947923 -0.208334,0.7031259 -0.989585,0.781251 h -0.07813 Q 17.239605,2.7083368 16.796896,2.6822951 13.281267,2.2656279 9.791679,2.6562534 9.0625115,2.7604202 8.7239694,2.2135445 7.9166767,2.1614611 7.7083431,1.3802101 7.0833423,-1.5104186 6.8750087,-4.4791723 q 0.026042,-0.2083336 0.078125,-0.3645838 -2.1354194,1.2500016 -4.4531306,2.0572942 -0.1302085,0.026042 -0.2343753,0.026042 z M 2.7343785,-8.2552188 Q 2.0312526,-8.2812605 1.7447939,-8.9062613 1.5104186,-9.8177207 2.343753,-10.26043 q 3.8020881,-1.614585 6.3541747,-4.843756 0.598959,-0.729167 1.4322933,-0.286458 0.729168,0.598959 0.286459,1.432293 -2.9166705,3.776046 -7.3177178,5.6250071 -0.1822918,0.078125 -0.3645837,0.078125 z m 20.7552345,-0.026042 q -0.182292,0.026042 -0.364584,-0.052083 -4.322922,-1.8229191 -7.161467,-5.5729241 -0.494792,-0.807292 0.234375,-1.432293 0.833335,-0.494792 1.458335,0.234375 2.44792,3.255213 6.197925,4.843756 0.859376,0.4166676 0.598959,1.328127 -0.286459,0.6250008 -0.963543,0.6510425 z m -0.598959,-4.9739645 q -0.208334,0 -0.416667,-0.07813 -0.833335,-0.468751 -0.520834,-1.38021 0.3125,-1.015627 0.286458,-2.109378 -1.145834,0 -2.265627,0.02604 -4.218756,0.104167 -8.463553,0.182292 -3.8020879,0.07813 -7.6302178,0 -0.2083336,0.911459 0.1041668,1.796877 0.3385421,0.859376 -0.4427089,1.38021 -0.8854177,0.338542 -1.4062517,-0.442709 -0.7552093,-2.031252 -0.052083,-4.088547 0.260417,-0.729167 1.0156262,-0.729167 3.9583384,0.104167 7.9166768,0.02604 0.572917,0 1.171876,-0.02604 -0.07813,-1.197918 0.156251,-2.395837 0.390625,-0.859376 1.328126,-0.625 0.859376,0.416667 0.598959,1.328126 -0.104166,0.833335 -0.02604,1.666669 2.838545,-0.05208 5.67709,-0.130208 1.640627,-0.05208 3.281254,-0.07813 0.885418,0.05208 1.041668,0.937502 0.286459,2.135419 -0.416667,4.14063 -0.286459,0.598959 -0.937501,0.598959 z m -5.390632,10.1041794 q -0.833334,-0.4947923 -1.822919,-0.5468757 -0.963543,-0.078125 -1.901044,-0.1302085 -2.395836,-0.078125 -4.7135475,0.520834 0.2083335,1.9531274 0.598959,3.90625489 1.7187525,-0.2864587 3.4895875,-0.2083336 1.901044,0.0781251 3.802088,0.2343753 h 0.182292 q 0.494793,-1.84896069 0.364584,-3.77604639 z" />
      <path
         id="path29"
         style="font-style:normal;font-variant:normal;font-weight:normal;font-stretch:normal;font-size:26.6667px;font-family:'Yuzu Pop A [M] Bold';-inkscape-font-specification:'Yuzu Pop A [M] Bold, Normal';font-variant-ligatures:normal;font-variant-caps:normal;font-variant-numeric:normal;font-variant-east-asian:normal;fill:#ffffff"
         d="m 28.776078,-4.5312557 q -0.755209,-0.052083 -0.989585,-0.781251 -0.15625,-0.9375012 0.729168,-1.2500016 0.677084,-0.1822919 1.354168,-0.3385421 3.072921,-0.520834 5.937508,-2.083336 1.041668,-0.5468756 1.744794,-1.3802096 -4.375006,0.07813 -8.72397,0.234375 -0.937501,-0.05208 -1.067709,-0.989585 0.05208,-0.911459 0.963543,-1.067709 4.947923,-0.234376 9.921887,-0.260417 0.208334,-0.75521 0.260417,-1.614586 0.130209,-0.937501 1.06771,-0.989584 0.937501,0.130208 0.989584,1.067709 -0.02604,0.781251 -0.15625,1.510419 5.234382,-0.02604 10.41668,0.390625 0.91146,0.234376 0.885418,1.171877 -0.182292,0.833334 -1.041668,0.885418 h -0.130209 q -4.713547,-0.390626 -9.427095,-0.390626 1.848961,1.4322936 4.088547,2.2395863 2.786462,1.0156263 5.651049,1.5885437 0.937501,0.2343753 0.833334,1.1979182 -0.182292,0.8072927 -1.015626,0.8593761 -0.07813,-0.026042 -0.182292,-0.026042 -1.015626,-0.1822919 -2.005211,-0.4427089 0.833334,0.3906255 1.562502,1.0677097 0.703126,2.6302116 -0.104167,5.3645901 -0.05208,0.2864587 -0.208333,0.4687506 -0.182292,0.7552093 -1.015627,0.8333344 H 49.03652 Q 48.697978,2.6822951 48.359436,2.6562534 45.833391,2.2916696 43.307346,2.6302117 42.526095,2.7864619 42.161512,2.1875028 41.536511,2.0312526 41.380261,1.3541684 40.91151,-1.3541684 40.75526,-4.0885468 q 0.07813,-0.9375012 1.015626,-1.0677097 h 0.02604 q 0.338542,0.026042 0.546876,0.1822919 1.953127,-0.5468757 4.062505,-0.5468757 0.364583,0 0.729167,0.052083 -0.338542,-0.1302085 -0.677084,-0.2343753 -2.187503,-0.7291676 -4.270839,-1.7447939 -1.53646,-0.7552093 -2.708336,-1.9791691 -0.781251,1.0416679 -2.005211,1.8229189 -2.421878,1.5364603 -5.078132,2.2656279 1.171877,-0.1822919 2.421878,-0.1822919 2.317712,0.026042 4.036464,1.5885437 0.677084,2.6562533 -0.104167,5.3645901 -0.07813,0.2864587 -0.234375,0.4947923 -0.208334,0.7291676 -1.015627,0.8072927 h -0.07813 Q 37.08338,2.7083368 36.744838,2.6562534 34.218793,2.2916696 31.692748,2.6302117 30.911497,2.7864619 30.546914,2.1875028 29.921913,2.0312526 29.765663,1.3541684 q -0.468751,-2.7083368 -0.625001,-5.4427152 0.02604,-0.3385421 0.15625,-0.5468757 l -0.260417,0.052083 q -0.130208,0.052083 -0.260417,0.052083 z m 20.338567,-9.1145953 h -0.07813 l -0.677084,-0.05208 q -2.526045,-0.390625 -5.05209,-0.05208 -0.781251,0.15625 -1.145834,-0.416668 -0.625001,-0.15625 -0.781251,-0.859376 -0.468751,-2.708336 -0.625001,-5.442715 0.07813,-0.937501 1.015626,-1.041668 h 0.02604 q 0.338542,0.02604 0.572917,0.15625 1.927086,-0.520834 4.036464,-0.520834 2.317711,0 4.036463,1.562502 0.703126,2.656254 -0.104167,5.390632 -0.05208,0.286459 -0.208333,0.468751 -0.182292,0.755209 -1.015627,0.807292 z m -11.614598,0 h -0.07813 l -0.677084,-0.05208 q -2.526045,-0.390625 -5.05209,-0.05208 -0.781251,0.15625 -1.145834,-0.416668 -0.625001,-0.15625 -0.781251,-0.859376 -0.468751,-2.708336 -0.625001,-5.442715 0.07813,-0.937501 1.015626,-1.041668 0.364584,0.02604 0.598959,0.15625 1.953128,-0.520834 4.062505,-0.520834 2.317712,0 4.036464,1.562502 0.677084,2.656254 -0.104167,5.390632 -0.07813,0.286459 -0.234375,0.494792 -0.208334,0.729168 -1.015627,0.781251 z m 11.17189,10.7291806 q -2.838546,-0.9375011 -5.781258,-0.078125 0.182292,1.7708356 0.442709,3.54167119 2.526045,-0.33854209 5.078132,0.0260417 0.364583,-1.71875219 0.260417,-3.48958779 z m -11.614599,0 q -2.838545,-0.9375011 -5.781257,-0.078125 0.182292,1.7708356 0.442709,3.54167119 2.526045,-0.33854209 5.078131,0.0260417 0.364584,-1.71875219 0.260417,-3.48958779 z M 48.671937,-19.270858 q -2.838546,-0.937501 -5.781258,-0.104166 0.182292,1.796877 0.442709,3.567712 2.552087,-0.338542 5.078132,0.02604 0.364583,-1.718752 0.260417,-3.489588 z m -11.614599,0 q -2.838545,-0.937501 -5.781257,-0.104166 0.182292,1.796877 0.442709,3.567712 2.552087,-0.338542 5.078131,0.02604 0.364584,-1.718752 0.260417,-3.489588 z" />
      <path
         id="path31"
         style="font-style:normal;font-variant:normal;font-weight:normal;font-stretch:normal;font-size:26.6667px;font-family:'Yuzu Pop A [M] Bold';-inkscape-font-specification:'Yuzu Pop A [M] Bold, Normal';font-variant-ligatures:normal;font-variant-caps:normal;font-variant-numeric:normal;font-variant-east-asian:normal;fill:#ffffff"
         d="m 69.375088,-5.2604233 q -0.572918,-0.052083 -0.833335,-0.4427089 h -6.822925 v 0.260417 q -0.130209,2.8125035 -0.104167,5.6250071 3.932297,0.31250039 7.890635,0.26041699 3.51563,0.0520834 7.005217,-0.20833359 0.156251,-0.1562502 0.07813,-0.3645838 -0.520834,-0.78125099 0.156251,-1.4322935 0.807292,-0.520834 1.484377,0.1562502 0.625,0.85937611 0.390625,1.92708579 -0.260417,1.09375141 -1.250002,1.58854371 -1.796877,0.3385421 -3.645838,0.3385421 -1.84896,0.026042 -3.697921,0.052083 h -1.406252 q -3.697921,0.052083 -7.395842,-0.3125004 -0.91146,0 -1.406252,-0.7031259 -0.3125,-0.80729271 -0.286459,-1.6927105 0,-2.6562534 0.104167,-5.3125067 0.02604,-0.5989591 0.05208,-1.2239599 0.07813,-0.9635429 1.041668,-1.041668 0.07813,0 0.156251,0.026042 0.07813,-0.026042 0.15625,-0.026042 h 7.552093 q 0.46875,-2.1875027 0.338542,-4.4010468 -2.890629,-0.208334 -5.807299,-0.07813 -1.197918,0.05208 -2.395837,0.05208 -0.963542,-0.07813 -1.041668,-1.041668 0.07813,-0.963543 1.041668,-1.041668 1.171877,0 2.343753,-0.02604 3.307296,-0.208333 6.562509,0.182292 1.562502,0.755209 1.432293,2.578128 -0.02604,2.3697951 -0.572917,4.713548 l -0.104167,0.5729174 q -0.07813,0.9375012 -1.015626,1.0156263 z m 3.281254,2.7864618 q -0.677084,-0.026042 -0.937501,-0.6510424 -0.312501,-0.9375012 0.572917,-1.3541684 0.833334,-0.4947923 1.22396,-1.3541684 0.390625,-0.8854178 0.651042,-1.7708356 0.260417,-0.9114595 0.416668,-1.8489606 0.703125,-3.9322971 0.46875,-7.9427181 -1.458335,0.07813 -2.91667,0.234375 -2.942712,0.260417 -5.885424,0.390625 -2.734379,0.156251 -5.416674,-0.130208 -0.364584,0.963543 -0.833334,1.901044 -1.276043,2.395836 -3.359379,4.14063 -0.286459,0.260417 -0.677085,0.260417 -0.46875,0 -0.781251,-0.364584 -0.572917,-0.781251 0.104167,-1.458335 1.822919,-1.510418 2.916671,-3.619796 1.197918,-2.500003 1.666668,-5.234382 0.260417,-0.911459 1.197918,-0.833334 0.937502,0.260417 0.833335,1.22396 -0.15625,0.989585 -0.416667,1.953127 2.395836,0.208334 4.817714,0.104167 2.838545,-0.130208 5.651049,-0.390625 1.979169,-0.182292 3.958338,-0.312501 0.91146,0.02604 1.093752,0.91146 0.416667,4.375005 -0.208334,8.7239692 -0.234375,1.4322934 -0.625001,2.8125035 -0.364584,1.3541684 -1.093751,2.6302117 -0.703126,1.2500016 -2.031253,1.901044 -0.182292,0.078125 -0.390625,0.078125 z" />
      <path
         id="path33"
         style="font-style:normal;font-variant:normal;font-weight:normal;font-stretch:normal;font-size:26.6667px;font-family:'Yuzu Pop A [M] Bold';-inkscape-font-specification:'Yuzu Pop A [M] Bold, Normal';font-variant-ligatures:normal;font-variant-caps:normal;font-variant-numeric:normal;font-variant-east-asian:normal;fill:#ffffff"
         d="m 82.682394,-4.7395893 q -0.885418,-0.078125 -1.015626,-0.9635429 0,-0.9375012 0.937501,-1.0937514 2.005211,-0.078125 4.010422,-0.078125 2.812503,-0.026042 5.598965,-0.026042 -0.02604,-0.4947923 0.02604,-0.9895846 v -0.3645838 q 0.05208,-0.4427089 0.286459,-0.7031259 -0.234376,0.026042 -0.442709,0.026042 h -0.104167 q -0.885418,-0.078125 -1.041668,-0.9375011 0,-0.9635429 0.937501,-1.1458349 2.13542,-0.07813 4.270839,-0.07813 -0.05208,-1.979169 -0.05208,-3.958338 h -0.208334 q -2.864587,0 -5.703132,0.02604 -0.937501,-0.07813 -1.041668,-1.015626 0.07813,-0.963543 1.041668,-1.041668 l 5.67709,-0.05208 h 0.234376 q 0,-1.848961 0.104166,-3.697922 0.182292,-0.937501 1.145835,-0.911459 0.937501,0.208333 0.885418,1.171876 -0.05208,1.718753 -0.05208,3.411463 l 5.937505,-0.02604 q 0.9375,0.104167 1.01563,1.041668 -0.0781,0.937501 -1.01563,1.041668 l -5.937505,0.02604 q 0,2.005211 0.05208,4.010422 h 0.182292 q 2.083339,0.02604 4.166669,-0.02604 0.96355,-0.05208 1.17188,0.885418 0.0521,0.937501 -0.85938,1.1718762 -2.23958,0.078125 -4.505211,0.026042 -2.187503,-0.026042 -4.401047,0.026042 0.286459,0.2343753 0.338542,0.7291676 -0.02604,0.2083336 -0.02604,0.4427089 -0.02604,0.4687506 0,0.9114595 3.307296,-0.026042 6.614588,-0.026042 h 3.22917 q 0.93751,0.078125 1.01563,1.0156263 -0.0781,0.9375012 -1.01563,1.041668 h -1.25 q 0.0781,0.078125 0.1823,0.2083336 0.4427,0.8333344 -0.31251,1.4322935 -1.53646,1.0416679 -3.229166,1.7708355 2.291666,1.5364603 5.078136,2.08333599 0.88541,0.2864587 0.80729,1.22395991 -0.23438,0.7552093 -1.01563,0.8072927 -0.13021,0 -0.23437,-0.026042 -4.03647,-0.7552093 -7.187513,-3.38542099 -1.979169,-1.66666881 -2.552086,-4.11458851 -1.06771,0.026042 -2.13542,0.026042 h -0.15625 l -0.05208,0.1041668 q -0.677084,0.9375012 -1.510419,1.6666688 v 3.203129 q 2.552087,-0.3385421 5.104173,-0.52083399 0.963543,0.0520834 1.093752,0.98958458 -0.05208,0.93750121 -0.989585,1.06770971 -3.385421,0.2083336 -6.7448,0.8072927 -1.302085,0.2083336 -2.60417,0.3906255 H 86.30219 Q 85.442814,2.7864619 85.286564,1.9531275 85.260522,1.0156263 86.171982,0.80729269 l 2.343753,-0.3645838 V -1.6666688 Q 88.411568,-1.6145854 88.28136,-1.562502 85.416773,-0.2864587 82.291769,0 H 82.16156 q -0.859376,-0.0781251 -1.015626,-0.91145949 -0.02604,-0.96354291 0.911459,-1.14583481 3.020838,-0.260417 5.729174,-1.5625019 0.937502,-0.4947923 1.666669,-1.2239599 l -3.437504,0.052083 q -1.614586,0 -3.255213,0.052083 z m -0.05208,-3.4375044 q -0.260417,0 -0.494792,-0.1302085 -0.781251,-0.5468757 -0.416668,-1.4062517 1.432294,-1.7968771 3.411463,-3.0208371 0.130208,-0.07813 0.286459,-0.182292 0.598959,-0.364584 1.093751,-0.05208 v -1.354169 q -0.02604,-3.177087 -0.02604,-6.380216 0.07813,-0.963543 1.041668,-1.041668 0.937502,0.104167 1.015627,1.041668 0.02604,3.177087 0.02604,6.380216 l 0.05208,6.4062583 q -0.104167,0.9375012 -1.041668,1.0156263 -0.937501,-0.078125 -1.041668,-1.0156263 v -3.2812543 l -0.234376,0.15625 q -1.53646,0.989585 -2.76042,2.3177116 -0.3125,0.520834 -0.911459,0.5468757 z m 2.578128,-6.6145913 q -0.572917,0 -0.885418,-0.494793 -0.104166,-0.130208 -0.182292,-0.286458 -0.651042,-1.276044 -1.796877,-2.13542 -0.729167,-0.598959 -0.3125,-1.432293 0.572917,-0.755209 1.432293,-0.312501 1.562502,1.119794 2.473962,2.812504 0.05208,0.130208 0.130208,0.260417 0.442709,0.859376 -0.338542,1.432293 -0.234375,0.156251 -0.520834,0.156251 z m 11.380223,9.9218872 q 0.390625,1.0937514 1.171876,1.9791691 0.182292,-0.1302085 0.416667,-0.2343752 1.744794,-0.7031259 3.307295,-1.7447939 z" />
      <path
         id="path35"
         style="font-style:normal;font-variant:normal;font-weight:normal;font-stretch:normal;font-size:26.6667px;font-family:'Yuzu Pop A [M] Bold';-inkscape-font-specification:'Yuzu Pop A [M] Bold, Normal';font-variant-ligatures:normal;font-variant-caps:normal;font-variant-numeric:normal;font-variant-east-asian:normal;fill:#ffffff"
         d="m 129.47933,-17.734397 q -1.45833,-0.05208 -2.36979,-1.197919 -1.35417,-1.979169 0.39062,-3.619796 0.3125,-0.234375 0.625,0 2.26563,-0.3125 3.6198,1.562502 0.80729,1.718752 -0.80729,2.786462 -0.65105,0.468751 -1.45834,0.468751 z m -1.58854,-3.750005 q -0.67709,0.989584 0.0521,1.927086 1.01563,1.250001 2.39584,0.520834 0.91146,-0.520834 0.49479,-1.432294 -0.98959,-1.354168 -2.60417,-1.041668 -0.15625,0.07813 -0.33854,0.02604 z M 114.47931,1.1979182 q -0.9375,-0.078125 -1.04167,-1.0156263 0.0781,-0.93750119 1.01563,-1.04166799 4.45313,-0.33854211 7.52605,-3.61979621 4.2448,-4.765631 4.34896,-11.1979307 -7.23959,0.885418 -14.55731,1.015626 -0.9375,-0.07813 -1.04166,-1.015626 0.0781,-0.963543 1.04166,-1.041668 7.76043,-0.130209 15.46877,-1.145835 0.44271,-0.05208 0.8073,0.234375 0.3125,0.312501 0.36458,0.75521 0.28646,7.9166763 -4.94792,13.8021005 -3.64584,3.90625489 -8.95835,4.2708387 z" />
      <path
         id="path37"
         style="font-style:normal;font-variant:normal;font-weight:normal;font-stretch:normal;font-size:26.6667px;font-family:'Yuzu Pop A [M] Bold';-inkscape-font-specification:'Yuzu Pop A [M] Bold, Normal';font-variant-ligatures:normal;font-variant-caps:normal;font-variant-numeric:normal;font-variant-east-asian:normal;fill:#ffffff"
         d="m 152.78665,-16.718771 q -0.20834,0 -0.39063,-0.07813 -2.94271,-0.703126 -5.98959,-0.546876 -3.02084,0.15625 -6.01563,0.416667 -0.41667,0.05208 -0.83334,0.07813 -0.9375,-0.05208 -1.11979,-0.963543 0.026,-0.937501 0.9375,-1.119793 l 0.83333,-0.05208 q 3.22918,-0.286459 6.51043,-0.442709 3.28125,-0.15625 6.45834,0.703126 0.83334,0.442709 0.57292,1.354168 -0.28646,0.598959 -0.96354,0.651043 z m -9.76564,18.2031479 h -0.33854 q -0.9375,-0.1041668 -1.01563,-1.04166801 0.10417,-0.93750118 1.04167,-1.01562628 h 0.026 q 9.47918,-0.1822919 11.17189,-9.55730361 -7.89064,-0.07813 -15.72919,1.0156261 -0.9375,0.026042 -1.14583,-0.8854181 -0.026,-0.937501 0.88542,-1.171876 8.56771,-1.197918 17.21356,-0.989585 0.44271,0.02604 0.72917,0.338542 0.26041,0.338542 0.23437,0.781251 -1.35417,11.79689029 -13.07293,12.5260579 z" />
      <path
         id="path39"
         style="font-style:normal;font-variant:normal;font-weight:normal;font-stretch:normal;font-size:26.6667px;font-family:'Yuzu Pop A [M] Bold';-inkscape-font-specification:'Yuzu Pop A [M] Bold, Normal';font-variant-ligatures:normal;font-variant-caps:normal;font-variant-numeric:normal;font-variant-east-asian:normal;fill:#ffffff"
         d="m 164.6877,0.78125099 q -0.85937,-0.0520834 -1.04166,-0.88541779 -0.026,-0.9635429 0.91146,-1.1718765 7.29167,-1.5885437 11.92709,-7.5260512 2.52605,-3.1250035 2.65626,-7.1354255 -0.59896,0.02604 -1.19792,0.02604 -5.96355,0.260417 -11.90106,0.02604 -0.9375,-0.130208 -0.96354,-1.093751 0.13021,-0.937501 1.09375,-0.963543 5.85938,0.208334 11.71877,-0.02604 1.09375,-0.02604 2.16146,-0.07813 0.88541,0.02604 1.04167,0.91146 0.46875,5.36459 -2.96876,9.5833451 -0.52083,0.6510425 -1.06771,1.2760433 2.5,2.8906287 5.41668,5.41667351 l 0.41666,0.3645838 q 0.625,0.70312589 0.0781,1.45833517 -0.3125,0.33854212 -0.78125,0.33854212 -0.39063,0 -0.67709,-0.260417 L 181.09398,0.67708419 Q 178.12522,-1.8489607 175.62522,-4.7916727 171.12,-0.54687569 164.81791,0.78125099 Z" />
      <path
         id="path41"
         style="font-style:normal;font-variant:normal;font-weight:normal;font-stretch:normal;font-size:26.6667px;font-family:'Yuzu Pop A [M] Bold';-inkscape-font-specification:'Yuzu Pop A [M] Bold, Normal';font-variant-ligatures:normal;font-variant-caps:normal;font-variant-numeric:normal;font-variant-east-asian:normal;fill:#ffffff"
         d="m 192.34399,-12.916683 q -0.91146,-0.07813 -1.01563,-0.989585 0.0521,-0.937501 0.98959,-1.067709 7.47397,-0.703126 13.22918,-5.468757 0.70313,-0.651043 1.45834,-0.07813 0.625,0.703126 0.0781,1.458335 -2.13542,1.822919 -4.53125,3.125004 0.0521,0.104167 0.10416,0.234375 0.57292,3.177088 0.13021,6.3281332 2.6823,-0.052083 5.36459,-0.1562502 0.96355,-0.026042 1.1198,0.9375011 0,0.9375012 -0.93751,1.1197931 -2.96875,0.1041668 -5.96354,0.1822919 -0.59896,2.343753 -1.71876,4.505214 -1.58854,2.9947955 -4.6875,4.5312558 -0.18229,0.078125 -0.39063,0.078125 -0.67708,-0.026042 -0.96354,-0.6510425 -0.26042,-0.9114595 0.59896,-1.3541684 2.60417,-1.4062518 3.88021,-4.0104217 0.70313,-1.4843769 1.17188,-3.0468789 -4.60938,0.078125 -9.19272,0.026042 -0.96355,-0.078125 -1.04167,-1.041668 0.0781,-0.9635428 1.04167,-1.0416679 4.81771,0.052083 9.66147,-0.026042 l 0.0521,-0.3125004 q 0.39063,-2.6822952 -0.0781,-5.3906322 -3.88022,1.718753 -8.33335,2.109378 z" />
      <path
         id="path43"
         style="font-style:normal;font-variant:normal;font-weight:normal;font-stretch:normal;font-size:26.6667px;font-family:'Yuzu Pop A [M] Bold';-inkscape-font-specification:'Yuzu Pop A [M] Bold, Normal';font-variant-ligatures:normal;font-variant-caps:normal;font-variant-numeric:normal;font-variant-east-asian:normal;fill:#ffffff"
         d="m 227.21383,-6.328133 q -0.83334,-0.052083 -1.01563,-0.8854178 -0.26041,-1.2239599 -1.14583,-2.1093776 -0.59896,-0.7552096 0.0781,-1.4583356 0.75521,-0.572917 1.45834,0.07813 1.30208,1.3541689 1.64063,3.1770878 0.0521,0.9375012 -0.85938,1.1718765 -0.0781,0.026042 -0.15625,0.026042 z m -3.72396,0.4427089 q -0.83334,-0.052083 -1.01563,-0.8593761 -0.26042,-1.2239599 -1.14584,-2.1093777 -0.57291,-0.7552092 0.0781,-1.4583351 0.75521,-0.572917 1.45833,0.07813 1.30209,1.3541684 1.64063,3.1770874 0.0521,0.9375012 -0.85937,1.1718765 z m 0.46875,7.0573006 q -0.88542,-0.078125 -1.04167,-0.9635429 0.026,-0.93750119 0.96354,-1.09375139 2.89063,-0.10416679 4.8698,-2.16146111 1.95313,-2.5781282 1.61458,-5.807299 0.026,-0.9375011 0.93751,-1.0937513 0.96354,-0.026042 1.11979,0.9375011 0.41667,4.0885469 -2.10938,7.3177176 -2.55209,2.7083368 -6.30209,2.864587 z" />
      <path
         id="path45"
         style="font-style:normal;font-variant:normal;font-weight:normal;font-stretch:normal;font-size:26.6667px;font-family:'Yuzu Pop A [M] Bold';-inkscape-font-specification:'Yuzu Pop A [M] Bold, Normal';font-variant-ligatures:normal;font-variant-caps:normal;font-variant-numeric:normal;font-variant-east-asian:normal;fill:#ffffff"
         d="m 245.39094,-8.3073022 q -0.44271,0 -0.75521,-0.3125004 -0.57292,-0.7552092 0.0521,-1.4583354 3.67188,-3.515629 4.06251,-8.593761 0.23437,-0.911459 1.19791,-0.859376 0.91146,0.234376 0.85938,1.171877 -0.10417,1.093751 -0.3125,2.109377 2.10938,0.07813 4.21876,0 2.76042,-0.104166 5.49479,0.07813 0.70313,0.104166 0.88542,0.807292 0.49479,3.51563 -0.625,6.8750089 -1.09375,3.3333376 -3.28125,6.1197994 -2.16146,2.78646189 -5.57293,3.9583384 -0.13021,0.052083 -0.28646,0.052083 -0.7552,-0.052083 -0.98958,-0.75520931 -0.18229,-0.93750119 0.70313,-1.27604328 4.03646,-1.74479391 6.09375,-5.59896541 2.08334,-3.8802132 2.0573,-8.1770941 -2.21355,-0.05208 -4.45313,0 -2.44792,0.104167 -4.8698,-0.05208 -1.17188,3.151046 -3.77605,5.6250071 -0.28646,0.2864587 -0.70312,0.2864587 z" />
    </g>
  </g>
</svg>
